<svg width="455" height="455" viewBox="0 0 455 455" fill="none" xmlns="http://www.w3.org/2000/svg">
<rect width="455" height="455" fill="#353535"/>
<g filter="url(#filter0_dd_129_44)">
<circle cx="227" cy="228" r="90" fill="url(#paint0_linear_129_44)"/>
</g>
<g filter="url(#filter1_d_129_44)">
<rect x="65.5" y="377.5" width="323" height="49" rx="24.5" stroke="white" shape-rendering="crispEdges"/>
<g filter="url(#filter2_d_129_44)">
<rect x="67" y="380" width="172" height="44" rx="22" fill="#56E42B"/>
</g>
</g>
<path d="M176.08 198.34C176.464 198.34 176.805 198.447 177.104 198.66C177.445 198.873 177.659 199.172 177.744 199.556L192.528 242.5H188.176L175.76 205.252C175.589 204.655 175.397 204.057 175.184 203.46C174.971 202.82 174.779 202.223 174.608 201.668H172.752C172.581 202.223 172.389 202.82 172.176 203.46C172.005 204.057 171.813 204.655 171.6 205.252L159.184 242.5H154.832L169.616 199.556C169.744 199.172 169.957 198.873 170.256 198.66C170.555 198.447 170.896 198.34 171.28 198.34H176.08ZM184.848 224.196V227.844H162.448V224.196H184.848ZM201.887 211.46L202.399 217.348L202.783 218.308V242.5H198.751V211.46H201.887ZM217.375 210.692L216.863 214.532H215.327C213.322 214.532 211.338 214.98 209.375 215.876C207.455 216.729 205.13 217.967 202.399 219.588L202.079 216.9C204.468 214.98 206.836 213.465 209.183 212.356C211.53 211.247 213.812 210.692 216.031 210.692H217.375ZM250.561 211.46L238.721 241.476C238.593 241.775 238.401 242.031 238.145 242.244C237.889 242.415 237.569 242.5 237.185 242.5H233.409C233.068 242.5 232.748 242.415 232.449 242.244C232.193 242.031 232.001 241.775 231.873 241.476L220.033 211.46H224.385L232.833 233.924C233.217 234.82 233.558 235.759 233.857 236.74C234.198 237.679 234.54 238.596 234.881 239.492H235.713C236.097 238.553 236.46 237.615 236.801 236.676C237.142 235.737 237.484 234.799 237.825 233.86L246.273 211.46H250.561ZM261.663 211.46V242.5H257.695V211.46H261.663ZM260.639 198.404C261.535 198.404 261.983 198.852 261.983 199.748V203.524C261.983 204.42 261.535 204.868 260.639 204.868H258.719C257.823 204.868 257.375 204.42 257.375 203.524V199.748C257.375 198.852 257.823 198.404 258.719 198.404H260.639ZM282.673 210.692C283.995 210.692 285.382 210.735 286.833 210.82C288.326 210.905 289.798 211.012 291.249 211.14C292.699 211.268 294.065 211.417 295.345 211.588L294.961 214.596C293.041 214.468 291.078 214.383 289.073 214.34C287.067 214.255 285.105 214.212 283.185 214.212C281.137 214.169 279.494 214.233 278.257 214.404C277.062 214.532 276.166 214.959 275.569 215.684C275.014 216.367 274.737 217.519 274.737 219.14C274.737 220.975 275.142 222.233 275.953 222.916C276.763 223.556 277.958 224.025 279.537 224.324L289.073 226.116C291.462 226.585 293.233 227.439 294.385 228.676C295.579 229.913 296.177 231.812 296.177 234.372C296.177 236.975 295.707 238.895 294.769 240.132C293.83 241.369 292.401 242.18 290.481 242.564C288.561 242.991 286.171 243.204 283.312 243.204C282.075 243.204 280.411 243.161 278.321 243.076C276.273 242.991 273.99 242.756 271.473 242.372L271.793 239.428C272.945 239.471 274.097 239.535 275.249 239.62C276.401 239.663 277.574 239.705 278.769 239.748C280.006 239.748 281.286 239.748 282.609 239.748C285.041 239.705 286.961 239.577 288.369 239.364C289.777 239.108 290.779 238.596 291.377 237.828C291.974 237.06 292.273 235.908 292.273 234.372C292.273 232.58 291.782 231.364 290.801 230.724C289.862 230.084 288.646 229.615 287.153 229.316L277.681 227.588C276.102 227.247 274.801 226.756 273.777 226.116C272.753 225.433 271.985 224.537 271.473 223.428C271.003 222.276 270.769 220.847 270.769 219.14C270.769 216.665 271.195 214.831 272.049 213.636C272.902 212.399 274.203 211.588 275.953 211.204C277.702 210.82 279.942 210.649 282.673 210.692Z" fill="white"/>
<path d="M195.972 362.273V371H194.915V363.21H190.517V371H189.461V362.273H195.972ZM197.967 373.455V364.455H198.939V365.494H199.058C199.132 365.381 199.234 365.236 199.365 365.06C199.499 364.881 199.689 364.722 199.936 364.582C200.186 364.44 200.524 364.369 200.95 364.369C201.501 364.369 201.987 364.507 202.408 364.783C202.828 365.058 203.156 365.449 203.392 365.955C203.628 366.46 203.746 367.057 203.746 367.744C203.746 368.438 203.628 369.038 203.392 369.547C203.156 370.053 202.83 370.445 202.412 370.723C201.994 370.999 201.513 371.136 200.967 371.136C200.547 371.136 200.21 371.067 199.957 370.928C199.705 370.786 199.51 370.625 199.374 370.446C199.237 370.264 199.132 370.114 199.058 369.994H198.973V373.455H197.967ZM198.956 367.727C198.956 368.222 199.028 368.658 199.173 369.036C199.318 369.411 199.53 369.705 199.808 369.918C200.087 370.128 200.428 370.233 200.831 370.233C201.251 370.233 201.602 370.122 201.884 369.901C202.168 369.676 202.381 369.375 202.523 368.997C202.668 368.616 202.74 368.193 202.74 367.727C202.74 367.267 202.669 366.852 202.527 366.483C202.388 366.111 202.176 365.817 201.892 365.601C201.611 365.382 201.257 365.273 200.831 365.273C200.422 365.273 200.078 365.376 199.8 365.584C199.521 365.788 199.311 366.075 199.169 366.445C199.027 366.811 198.956 367.239 198.956 367.727ZM207.939 371.136C207.348 371.136 206.83 370.996 206.384 370.714C205.94 370.433 205.594 370.04 205.344 369.534C205.097 369.028 204.973 368.437 204.973 367.761C204.973 367.08 205.097 366.484 205.344 365.976C205.594 365.467 205.94 365.072 206.384 364.791C206.83 364.51 207.348 364.369 207.939 364.369C208.53 364.369 209.047 364.51 209.49 364.791C209.936 365.072 210.283 365.467 210.53 365.976C210.78 366.484 210.905 367.08 210.905 367.761C210.905 368.437 210.78 369.028 210.53 369.534C210.283 370.04 209.936 370.433 209.49 370.714C209.047 370.996 208.53 371.136 207.939 371.136ZM207.939 370.233C208.388 370.233 208.757 370.118 209.047 369.888C209.337 369.658 209.551 369.355 209.69 368.98C209.83 368.605 209.899 368.199 209.899 367.761C209.899 367.324 209.83 366.916 209.69 366.538C209.551 366.161 209.337 365.855 209.047 365.622C208.757 365.389 208.388 365.273 207.939 365.273C207.49 365.273 207.121 365.389 206.831 365.622C206.541 365.855 206.327 366.161 206.188 366.538C206.048 366.916 205.979 367.324 205.979 367.761C205.979 368.199 206.048 368.605 206.188 368.98C206.327 369.355 206.541 369.658 206.831 369.888C207.121 370.118 207.49 370.233 207.939 370.233ZM216.48 364.455V365.392H213.446V371H212.44V364.455H216.48ZM217.948 373.455V364.455H218.919V365.494H219.039C219.113 365.381 219.215 365.236 219.346 365.06C219.479 364.881 219.669 364.722 219.917 364.582C220.167 364.44 220.505 364.369 220.931 364.369C221.482 364.369 221.968 364.507 222.388 364.783C222.809 365.058 223.137 365.449 223.373 365.955C223.608 366.46 223.726 367.057 223.726 367.744C223.726 368.438 223.608 369.038 223.373 369.547C223.137 370.053 222.81 370.445 222.392 370.723C221.975 370.999 221.493 371.136 220.948 371.136C220.527 371.136 220.191 371.067 219.938 370.928C219.685 370.786 219.49 370.625 219.354 370.446C219.218 370.264 219.113 370.114 219.039 369.994H218.953V373.455H217.948ZM218.936 367.727C218.936 368.222 219.009 368.658 219.154 369.036C219.299 369.411 219.51 369.705 219.789 369.918C220.067 370.128 220.408 370.233 220.811 370.233C221.232 370.233 221.583 370.122 221.864 369.901C222.148 369.676 222.361 369.375 222.503 368.997C222.648 368.616 222.721 368.193 222.721 367.727C222.721 367.267 222.65 366.852 222.507 366.483C222.368 366.111 222.157 365.817 221.873 365.601C221.591 365.382 221.238 365.273 220.811 365.273C220.402 365.273 220.059 365.376 219.78 365.584C219.502 365.788 219.292 366.075 219.15 366.445C219.007 366.811 218.936 367.239 218.936 367.727ZM228.005 371.136C227.374 371.136 226.83 370.997 226.373 370.719C225.918 370.438 225.567 370.045 225.32 369.543C225.076 369.037 224.953 368.449 224.953 367.778C224.953 367.108 225.076 366.517 225.32 366.006C225.567 365.491 225.911 365.091 226.351 364.804C226.794 364.514 227.311 364.369 227.902 364.369C228.243 364.369 228.58 364.426 228.912 364.54C229.245 364.653 229.547 364.838 229.82 365.094C230.093 365.347 230.31 365.682 230.472 366.099C230.634 366.517 230.715 367.031 230.715 367.642V368.068H225.669V367.199H229.692C229.692 366.83 229.618 366.5 229.471 366.21C229.326 365.92 229.118 365.692 228.848 365.524C228.581 365.357 228.266 365.273 227.902 365.273C227.502 365.273 227.155 365.372 226.863 365.571C226.573 365.767 226.35 366.023 226.194 366.338C226.037 366.653 225.959 366.991 225.959 367.352V367.932C225.959 368.426 226.044 368.845 226.215 369.189C226.388 369.53 226.628 369.79 226.935 369.969C227.242 370.145 227.598 370.233 228.005 370.233C228.269 370.233 228.507 370.196 228.721 370.122C228.936 370.045 229.123 369.932 229.279 369.781C229.435 369.628 229.556 369.437 229.641 369.21L230.613 369.483C230.51 369.812 230.338 370.102 230.097 370.352C229.855 370.599 229.557 370.793 229.202 370.932C228.847 371.068 228.448 371.136 228.005 371.136ZM232.245 371V364.455H234.921C235.625 364.455 236.185 364.614 236.6 364.932C237.015 365.25 237.222 365.67 237.222 366.193C237.222 366.591 237.104 366.899 236.868 367.118C236.632 367.334 236.33 367.48 235.961 367.557C236.202 367.591 236.436 367.676 236.664 367.812C236.894 367.949 237.084 368.136 237.235 368.375C237.385 368.611 237.461 368.901 237.461 369.244C237.461 369.58 237.375 369.879 237.205 370.143C237.034 370.408 236.79 370.616 236.472 370.77C236.154 370.923 235.773 371 235.33 371H232.245ZM233.199 370.08H235.33C235.676 370.08 235.948 369.997 236.144 369.832C236.34 369.668 236.438 369.443 236.438 369.159C236.438 368.821 236.34 368.555 236.144 368.362C235.948 368.166 235.676 368.068 235.33 368.068H233.199V370.08ZM233.199 367.199H234.921C235.191 367.199 235.422 367.162 235.615 367.088C235.809 367.011 235.956 366.903 236.059 366.764C236.164 366.622 236.216 366.455 236.216 366.261C236.216 365.986 236.101 365.77 235.871 365.614C235.641 365.455 235.324 365.375 234.921 365.375H233.199V367.199ZM242.494 371V362.273H243.551V370.062H247.608V371H242.494ZM249.244 371V362.273H250.301V370.062H254.358V371H249.244ZM255.994 362.273H257.256L260.222 369.517H260.324L263.29 362.273H264.551V371H263.562V364.369H263.477L260.75 371H259.795L257.068 364.369H256.983V371H255.994V362.273Z" fill="white"/>
<defs>
<filter id="filter0_dd_129_44" x="130.5" y="138" width="193" height="195.5" filterUnits="userSpaceOnUse" color-interpolation-filters="sRGB">
<feFlood flood-opacity="0" result="BackgroundImageFix"/>
<feColorMatrix in="SourceAlpha" type="matrix" values="0 0 0 0 0 0 0 0 0 0 0 0 0 0 0 0 0 0 127 0" result="hardAlpha"/>
<feMorphology radius="1" operator="dilate" in="SourceAlpha" result="effect1_dropShadow_129_44"/>
<feOffset dy="9"/>
<feGaussianBlur stdDeviation="2.75"/>
<feComposite in2="hardAlpha" operator="out"/>
<feColorMatrix type="matrix" values="0 0 0 0 0 0 0 0 0 0 0 0 0 0 0 0 0 0 0.25 0"/>
<feBlend mode="normal" in2="BackgroundImageFix" result="effect1_dropShadow_129_44"/>
<feColorMatrix in="SourceAlpha" type="matrix" values="0 0 0 0 0 0 0 0 0 0 0 0 0 0 0 0 0 0 127 0" result="hardAlpha"/>
<feOffset dy="4"/>
<feGaussianBlur stdDeviation="2"/>
<feComposite in2="hardAlpha" operator="out"/>
<feColorMatrix type="matrix" values="0 0 0 0 0 0 0 0 0 0 0 0 0 0 0 0 0 0 0.25 0"/>
<feBlend mode="normal" in2="effect1_dropShadow_129_44" result="effect2_dropShadow_129_44"/>
<feBlend mode="normal" in="SourceGraphic" in2="effect2_dropShadow_129_44" result="shape"/>
</filter>
<filter id="filter1_d_129_44" x="61" y="377" width="332" height="59" filterUnits="userSpaceOnUse" color-interpolation-filters="sRGB">
<feFlood flood-opacity="0" result="BackgroundImageFix"/>
<feColorMatrix in="SourceAlpha" type="matrix" values="0 0 0 0 0 0 0 0 0 0 0 0 0 0 0 0 0 0 127 0" result="hardAlpha"/>
<feMorphology radius="1" operator="dilate" in="SourceAlpha" result="effect1_dropShadow_129_44"/>
<feOffset dy="5"/>
<feGaussianBlur stdDeviation="1.5"/>
<feComposite in2="hardAlpha" operator="out"/>
<feColorMatrix type="matrix" values="0 0 0 0 0 0 0 0 0 0 0 0 0 0 0 0 0 0 0.25 0"/>
<feBlend mode="normal" in2="BackgroundImageFix" result="effect1_dropShadow_129_44"/>
<feBlend mode="normal" in="SourceGraphic" in2="effect1_dropShadow_129_44" result="shape"/>
</filter>
<filter id="filter2_d_129_44" x="63" y="380" width="180" height="53" filterUnits="userSpaceOnUse" color-interpolation-filters="sRGB">
<feFlood flood-opacity="0" result="BackgroundImageFix"/>
<feColorMatrix in="SourceAlpha" type="matrix" values="0 0 0 0 0 0 0 0 0 0 0 0 0 0 0 0 0 0 127 0" result="hardAlpha"/>
<feMorphology radius="1" operator="dilate" in="SourceAlpha" result="effect1_dropShadow_129_44"/>
<feOffset dy="5"/>
<feGaussianBlur stdDeviation="1.5"/>
<feComposite in2="hardAlpha" operator="out"/>
<feColorMatrix type="matrix" values="0 0 0 0 0 0 0 0 0 0 0 0 0 0 0 0 0 0 0.25 0"/>
<feBlend mode="normal" in2="BackgroundImageFix" result="effect1_dropShadow_129_44"/>
<feBlend mode="normal" in="SourceGraphic" in2="effect1_dropShadow_129_44" result="shape"/>
</filter>
<linearGradient id="paint0_linear_129_44" x1="227" y1="138" x2="227" y2="318" gradientUnits="userSpaceOnUse">
<stop stop-color="#00C8F5"/>
<stop offset="1" stop-color="#8800FF"/>
</linearGradient>
</defs>
</svg>
