<svg width="455" height="455" viewBox="0 0 455 455" fill="none" xmlns="http://www.w3.org/2000/svg">
<rect width="455" height="455" fill="#353535"/>
<g filter="url(#filter0_d_129_14)">
<rect x="65.5" y="296.5" width="139" height="49" rx="24.5" stroke="white" shape-rendering="crispEdges"/>
<path d="M118.12 315.04C119.24 315.04 120.127 315.147 120.78 315.36C121.447 315.56 121.927 315.92 122.22 316.44C122.513 316.96 122.66 317.693 122.66 318.64C122.66 319.627 122.473 320.38 122.1 320.9C121.74 321.42 121.147 321.72 120.32 321.8V321.88C121.347 321.973 122.06 322.333 122.46 322.96C122.873 323.587 123.08 324.453 123.08 325.56C123.08 326.507 122.933 327.24 122.64 327.76C122.36 328.28 121.9 328.647 121.26 328.86C120.62 329.06 119.78 329.16 118.74 329.16C117.98 329.16 117.327 329.153 116.78 329.14C116.247 329.14 115.753 329.127 115.3 329.1C114.847 329.073 114.367 329.04 113.86 329L114.14 327.96C114.42 327.973 114.96 327.987 115.76 328C116.56 328.013 117.493 328.02 118.56 328.02C119.36 328.02 119.987 327.953 120.44 327.82C120.907 327.673 121.24 327.413 121.44 327.04C121.64 326.653 121.74 326.093 121.74 325.36C121.74 324.573 121.633 323.967 121.42 323.54C121.22 323.113 120.873 322.813 120.38 322.64C119.9 322.467 119.24 322.373 118.4 322.36H114.12V321.34H118.4C119.133 321.327 119.713 321.253 120.14 321.12C120.58 320.973 120.893 320.713 121.08 320.34C121.28 319.967 121.38 319.44 121.38 318.76C121.38 318.053 121.273 317.513 121.06 317.14C120.86 316.767 120.513 316.513 120.02 316.38C119.54 316.247 118.887 316.18 118.06 316.18C117.433 316.18 116.867 316.18 116.36 316.18C115.853 316.18 115.413 316.187 115.04 316.2C114.667 316.2 114.367 316.213 114.14 316.24L113.86 315.2C114.3 315.147 114.72 315.113 115.12 315.1C115.52 315.073 115.953 315.06 116.42 315.06C116.9 315.047 117.467 315.04 118.12 315.04ZM115.14 315.2V329H113.86V315.2H115.14ZM133.964 319.3L130.824 323.98L134.224 329H132.804L129.464 323.98L132.564 319.3H133.964ZM126.564 319.3L129.664 323.98L126.324 329H124.904L128.304 323.98L125.164 319.3H126.564ZM130.424 323.46V324.46H128.704V323.46H130.424ZM140.258 319.06C141.351 319.06 142.218 319.227 142.858 319.56C143.511 319.893 143.978 320.433 144.258 321.18C144.551 321.927 144.698 322.92 144.698 324.16C144.698 325.4 144.551 326.393 144.258 327.14C143.978 327.887 143.511 328.427 142.858 328.76C142.218 329.093 141.351 329.26 140.258 329.26C139.165 329.26 138.291 329.093 137.638 328.76C136.985 328.427 136.511 327.887 136.218 327.14C135.938 326.393 135.798 325.4 135.798 324.16C135.798 322.92 135.938 321.927 136.218 321.18C136.511 320.433 136.985 319.893 137.638 319.56C138.291 319.227 139.165 319.06 140.258 319.06ZM140.258 320.16C139.485 320.16 138.865 320.28 138.398 320.52C137.945 320.76 137.618 321.173 137.418 321.76C137.218 322.333 137.118 323.133 137.118 324.16C137.118 325.173 137.218 325.973 137.418 326.56C137.618 327.147 137.945 327.56 138.398 327.8C138.865 328.04 139.485 328.16 140.258 328.16C141.031 328.16 141.645 328.04 142.098 327.8C142.551 327.56 142.878 327.147 143.078 326.56C143.278 325.973 143.378 325.173 143.378 324.16C143.378 323.133 143.278 322.333 143.078 321.76C142.878 321.173 142.551 320.76 142.098 320.52C141.645 320.28 141.031 320.16 140.258 320.16ZM154.811 319.3V320.32H151.391C150.578 320.32 150.145 320.74 150.091 321.58C150.038 322.527 149.931 323.433 149.771 324.3C149.611 325.167 149.378 325.993 149.071 326.78C148.765 327.553 148.345 328.293 147.811 329H146.691C147.225 328.24 147.645 327.447 147.951 326.62C148.258 325.78 148.485 324.92 148.631 324.04C148.778 323.16 148.878 322.28 148.931 321.4C148.971 320.707 149.178 320.187 149.551 319.84C149.925 319.48 150.471 319.3 151.191 319.3H154.811ZM147.251 328.9L147.111 331.88H146.271V328.9H147.251ZM156.291 327.98V329H146.271V327.98H156.291ZM156.291 328.9V331.88H155.451L155.311 328.9H156.291ZM155.051 319.3V329H153.831V319.3H155.051Z" fill="white"/>
</g>
<g filter="url(#filter1_d_129_14)">
<rect x="249.5" y="296.5" width="139" height="49" rx="24.5" stroke="white" shape-rendering="crispEdges"/>
<path d="M265.5 315.02C266.553 315.02 267.387 315.147 268 315.4C268.627 315.653 269.073 316.087 269.34 316.7C269.62 317.3 269.76 318.153 269.76 319.26C269.76 320.367 269.627 321.227 269.36 321.84C269.093 322.453 268.653 322.88 268.04 323.12C267.44 323.36 266.627 323.48 265.6 323.48C265.053 323.48 264.533 323.473 264.04 323.46C263.547 323.433 263.093 323.407 262.68 323.38C262.28 323.34 261.933 323.3 261.64 323.26C261.36 323.22 261.167 323.187 261.06 323.16L261.12 322.34C261.8 322.34 262.513 322.34 263.26 322.34C264.007 322.34 264.74 322.34 265.46 322.34C266.193 322.327 266.773 322.233 267.2 322.06C267.64 321.887 267.953 321.58 268.14 321.14C268.327 320.687 268.42 320.06 268.42 319.26C268.42 318.433 268.327 317.8 268.14 317.36C267.953 316.92 267.64 316.613 267.2 316.44C266.773 316.267 266.193 316.18 265.46 316.18C264.393 316.18 263.473 316.187 262.7 316.2C261.927 316.2 261.407 316.213 261.14 316.24L260.86 315.2C261.353 315.147 261.813 315.107 262.24 315.08C262.667 315.053 263.133 315.04 263.64 315.04C264.147 315.027 264.767 315.02 265.5 315.02ZM262.16 315.2V329H260.86V315.2H262.16ZM276.201 319.06C277.587 319.06 278.601 319.313 279.241 319.82C279.894 320.327 280.227 321.08 280.241 322.08C280.254 322.947 280.087 323.613 279.741 324.08C279.394 324.547 278.821 324.78 278.021 324.78H272.361V323.78H277.741C278.221 323.78 278.547 323.62 278.721 323.3C278.894 322.98 278.974 322.58 278.961 322.1C278.947 321.407 278.727 320.913 278.301 320.62C277.874 320.313 277.194 320.16 276.261 320.16C275.487 320.16 274.874 320.28 274.421 320.52C273.967 320.76 273.641 321.167 273.441 321.74C273.254 322.3 273.161 323.067 273.161 324.04C273.161 325.12 273.274 325.96 273.501 326.56C273.727 327.147 274.087 327.56 274.581 327.8C275.074 328.027 275.721 328.14 276.521 328.14C277.107 328.14 277.701 328.12 278.301 328.08C278.901 328.027 279.427 327.967 279.881 327.9L280.001 328.76C279.747 328.867 279.401 328.953 278.961 329.02C278.521 329.087 278.067 329.14 277.601 329.18C277.147 329.22 276.734 329.24 276.361 329.24C275.294 329.24 274.427 329.073 273.761 328.74C273.094 328.393 272.607 327.847 272.301 327.1C272.007 326.34 271.861 325.347 271.861 324.12C271.861 322.853 272.007 321.853 272.301 321.12C272.594 320.387 273.061 319.86 273.701 319.54C274.341 319.22 275.174 319.06 276.201 319.06ZM285.044 319.28C285.857 319.28 286.67 319.287 287.484 319.3C288.31 319.313 289.124 319.347 289.924 319.4L289.884 320.32H285.524C285.084 320.32 284.757 320.427 284.544 320.64C284.344 320.84 284.244 321.167 284.244 321.62V329H282.984V321.32C282.984 320.667 283.157 320.167 283.504 319.82C283.864 319.46 284.377 319.28 285.044 319.28ZM300.406 319.3V329H299.246V322.04C299.246 321.84 299.246 321.647 299.246 321.46C299.26 321.26 299.273 321.053 299.286 320.84H299.246C299.166 321 299.066 321.173 298.946 321.36C298.826 321.547 298.713 321.713 298.606 321.86L293.146 329H292.086V319.3H293.266V326.24C293.266 326.44 293.26 326.64 293.246 326.84C293.246 327.04 293.24 327.253 293.226 327.48H293.246C293.353 327.293 293.466 327.107 293.586 326.92C293.706 326.733 293.826 326.573 293.946 326.44L299.366 319.3H300.406ZM307.845 319.06C308.125 319.06 308.439 319.073 308.785 319.1C309.132 319.127 309.485 319.173 309.845 319.24C310.205 319.293 310.539 319.373 310.845 319.48L310.645 320.32C310.245 320.267 309.799 320.227 309.305 320.2C308.812 320.173 308.399 320.16 308.065 320.16C307.225 320.16 306.552 320.28 306.045 320.52C305.552 320.747 305.192 321.153 304.965 321.74C304.752 322.313 304.645 323.113 304.645 324.14C304.645 325.167 304.752 325.973 304.965 326.56C305.192 327.147 305.552 327.56 306.045 327.8C306.552 328.027 307.225 328.14 308.065 328.14C308.252 328.14 308.505 328.133 308.825 328.12C309.159 328.107 309.505 328.087 309.865 328.06C310.239 328.033 310.585 327.993 310.905 327.94L311.025 328.8C310.559 328.947 310.045 329.053 309.485 329.12C308.939 329.2 308.399 329.24 307.865 329.24C306.759 329.24 305.872 329.073 305.205 328.74C304.539 328.407 304.059 327.873 303.765 327.14C303.472 326.393 303.325 325.393 303.325 324.14C303.325 322.9 303.472 321.907 303.765 321.16C304.059 320.413 304.539 319.88 305.205 319.56C305.872 319.227 306.752 319.06 307.845 319.06ZM317.312 319.3V329H316.052V319.3H317.312ZM320.952 319.3V320.36H312.392V319.3H320.952ZM328.38 319.06C329.606 319.06 330.48 319.48 331 320.32C331.52 321.16 331.78 322.447 331.78 324.18C331.78 325.42 331.653 326.413 331.4 327.16C331.146 327.893 330.753 328.427 330.22 328.76C329.686 329.08 329.006 329.24 328.18 329.24C327.526 329.24 326.88 329.153 326.24 328.98C325.613 328.793 324.986 328.527 324.36 328.18L324.42 327.38C325.126 327.607 325.74 327.787 326.26 327.92C326.78 328.053 327.326 328.12 327.9 328.12C328.513 328.12 329.006 328.007 329.38 327.78C329.753 327.54 330.026 327.133 330.2 326.56C330.386 325.987 330.48 325.193 330.48 324.18C330.48 323.193 330.393 322.413 330.22 321.84C330.06 321.253 329.8 320.833 329.44 320.58C329.093 320.313 328.626 320.18 328.04 320.18C327.466 320.18 326.9 320.32 326.34 320.6C325.793 320.88 325.153 321.313 324.42 321.9L324.32 320.98C324.72 320.58 325.14 320.24 325.58 319.96C326.033 319.667 326.493 319.447 326.96 319.3C327.44 319.14 327.913 319.06 328.38 319.06ZM324.24 319.3L324.4 321.24L324.48 321.42V327.82L324.4 328.06C324.44 328.433 324.466 328.78 324.48 329.1C324.493 329.42 324.493 329.767 324.48 330.14V333.08H323.22V319.3H324.24ZM339.243 319.06C339.91 319.06 340.47 319.16 340.923 319.36C341.39 319.547 341.743 319.86 341.983 320.3C342.223 320.727 342.343 321.307 342.343 322.04V329H341.343L341.143 326.88L341.063 326.7V322.04C341.063 321.427 340.923 320.96 340.643 320.64C340.363 320.32 339.817 320.16 339.003 320.16C338.417 320.16 337.737 320.187 336.963 320.24C336.19 320.293 335.437 320.36 334.703 320.44L334.583 319.5C335.023 319.42 335.497 319.353 336.003 319.3C336.523 319.233 337.057 319.18 337.603 319.14C338.15 319.087 338.697 319.06 339.243 319.06ZM341.683 323.08L341.663 324.04L336.923 324.08C336.417 324.093 336.043 324.233 335.803 324.5C335.577 324.753 335.463 325.113 335.463 325.58V326.42C335.463 326.967 335.603 327.373 335.883 327.64C336.163 327.907 336.583 328.04 337.143 328.04C337.57 328.053 338.043 327.98 338.563 327.82C339.083 327.66 339.59 327.427 340.083 327.12C340.59 326.813 341.037 326.453 341.423 326.04V327.02C341.277 327.22 341.05 327.44 340.743 327.68C340.45 327.92 340.103 328.153 339.703 328.38C339.317 328.607 338.883 328.793 338.403 328.94C337.937 329.087 337.45 329.16 336.943 329.16C336.383 329.16 335.89 329.06 335.463 328.86C335.05 328.66 334.73 328.367 334.503 327.98C334.29 327.58 334.183 327.1 334.183 326.54V325.42C334.183 324.673 334.403 324.1 334.843 323.7C335.297 323.287 335.93 323.08 336.743 323.08H341.683ZM346.901 319.3V329H345.661V319.3H346.901ZM354.781 327.98V329H346.781L346.761 327.98H354.781ZM353.541 319.3V329H352.281V319.3H353.541ZM354.781 328.9V331.88H353.941L353.781 328.9H354.781ZM365.641 319.3V329H364.481V322.04C364.481 321.84 364.481 321.647 364.481 321.46C364.494 321.26 364.507 321.053 364.521 320.84H364.481C364.401 321 364.301 321.173 364.181 321.36C364.061 321.547 363.947 321.713 363.841 321.86L358.381 329H357.321V319.3H358.501V326.24C358.501 326.44 358.494 326.64 358.481 326.84C358.481 327.04 358.474 327.253 358.461 327.48H358.481C358.587 327.293 358.701 327.107 358.821 326.92C358.941 326.733 359.061 326.573 359.181 326.44L364.601 319.3H365.641ZM372.2 319.24C372.893 319.24 373.473 319.247 373.94 319.26C374.407 319.26 374.827 319.267 375.2 319.28C375.573 319.293 375.967 319.32 376.38 319.36L376.14 320.34C375.98 320.313 375.54 320.293 374.82 320.28C374.113 320.267 373.253 320.26 372.24 320.26C371.36 320.26 370.767 320.433 370.46 320.78C370.167 321.113 370.02 321.593 370.02 322.22C370.02 322.927 370.187 323.453 370.52 323.8C370.853 324.147 371.473 324.32 372.38 324.32H376.16L376.2 325.28C376.08 325.28 375.847 325.287 375.5 325.3C375.167 325.3 374.727 325.3 374.18 325.3C373.647 325.3 373.027 325.3 372.32 325.3C371.773 325.3 371.333 325.4 371 325.6C370.667 325.787 370.447 326.06 370.34 326.42L369.58 329H368.26L369.14 326.12C369.233 325.853 369.38 325.633 369.58 325.46C369.78 325.273 370.007 325.14 370.26 325.06C370.527 324.967 370.793 324.9 371.06 324.86V324.8C370.513 324.747 370.073 324.6 369.74 324.36C369.407 324.12 369.16 323.807 369 323.42C368.853 323.02 368.78 322.56 368.78 322.04C368.78 321.613 368.833 321.233 368.94 320.9C369.047 320.553 369.233 320.26 369.5 320.02C369.767 319.767 370.12 319.573 370.56 319.44C371.013 319.307 371.56 319.24 372.2 319.24ZM376.38 319.36V329H375.14V319.36H376.38Z" fill="white"/>
</g>
<g filter="url(#filter2_d_129_14)">
<rect x="157.5" y="366.5" width="139" height="49" rx="24.5" stroke="white" shape-rendering="crispEdges"/>
<path d="M206.66 385.18C207.62 385.18 208.58 385.187 209.54 385.2C210.513 385.213 211.453 385.247 212.36 385.3L212.3 386.32H207.06C206.593 386.32 206.233 386.447 205.98 386.7C205.727 386.94 205.6 387.307 205.6 387.8V399H204.3V387.58C204.3 386.873 204.52 386.3 204.96 385.86C205.413 385.407 205.98 385.18 206.66 385.18ZM215.211 389.06C216.305 389.06 217.171 389.227 217.811 389.56C218.465 389.893 218.931 390.433 219.211 391.18C219.505 391.927 219.651 392.92 219.651 394.16C219.651 395.4 219.505 396.393 219.211 397.14C218.931 397.887 218.465 398.427 217.811 398.76C217.171 399.093 216.305 399.26 215.211 399.26C214.118 399.26 213.245 399.093 212.591 398.76C211.938 398.427 211.465 397.887 211.171 397.14C210.891 396.393 210.751 395.4 210.751 394.16C210.751 392.92 210.891 391.927 211.171 391.18C211.465 390.433 211.938 389.893 212.591 389.56C213.245 389.227 214.118 389.06 215.211 389.06ZM215.211 390.16C214.438 390.16 213.818 390.28 213.351 390.52C212.898 390.76 212.571 391.173 212.371 391.76C212.171 392.333 212.071 393.133 212.071 394.16C212.071 395.173 212.171 395.973 212.371 396.56C212.571 397.147 212.898 397.56 213.351 397.8C213.818 398.04 214.438 398.16 215.211 398.16C215.985 398.16 216.598 398.04 217.051 397.8C217.505 397.56 217.831 397.147 218.031 396.56C218.231 395.973 218.331 395.173 218.331 394.16C218.331 393.133 218.231 392.333 218.031 391.76C217.831 391.173 217.505 390.76 217.051 390.52C216.598 390.28 215.985 390.16 215.211 390.16ZM226.619 389.06C226.899 389.06 227.212 389.073 227.559 389.1C227.906 389.127 228.259 389.173 228.619 389.24C228.979 389.293 229.312 389.373 229.619 389.48L229.419 390.32C229.019 390.267 228.572 390.227 228.079 390.2C227.586 390.173 227.172 390.16 226.839 390.16C225.999 390.16 225.326 390.28 224.819 390.52C224.326 390.747 223.966 391.153 223.739 391.74C223.526 392.313 223.419 393.113 223.419 394.14C223.419 395.167 223.526 395.973 223.739 396.56C223.966 397.147 224.326 397.56 224.819 397.8C225.326 398.027 225.999 398.14 226.839 398.14C227.026 398.14 227.279 398.133 227.599 398.12C227.932 398.107 228.279 398.087 228.639 398.06C229.012 398.033 229.359 397.993 229.679 397.94L229.799 398.8C229.332 398.947 228.819 399.053 228.259 399.12C227.712 399.2 227.172 399.24 226.639 399.24C225.532 399.24 224.646 399.073 223.979 398.74C223.312 398.407 222.832 397.873 222.539 397.14C222.246 396.393 222.099 395.393 222.099 394.14C222.099 392.9 222.246 391.907 222.539 391.16C222.832 390.413 223.312 389.88 223.979 389.56C224.646 389.227 225.526 389.06 226.619 389.06ZM236.085 389.3V399H234.825V389.3H236.085ZM239.725 389.3V390.36H231.165V389.3H239.725ZM245.833 393.26C246.793 393.26 247.546 393.353 248.093 393.54C248.64 393.713 249.026 394.02 249.253 394.46C249.48 394.887 249.593 395.46 249.593 396.18C249.593 396.953 249.473 397.553 249.233 397.98C248.993 398.407 248.606 398.707 248.073 398.88C247.553 399.04 246.866 399.12 246.013 399.12C245.4 399.12 244.866 399.113 244.413 399.1C243.973 399.1 243.566 399.087 243.193 399.06C242.833 399.047 242.44 399.027 242.013 399L242.253 398.04C242.48 398.053 242.913 398.067 243.553 398.08C244.193 398.093 244.953 398.1 245.833 398.1C246.433 398.1 246.913 398.047 247.273 397.94C247.633 397.833 247.886 397.64 248.033 397.36C248.193 397.08 248.273 396.673 248.273 396.14C248.273 395.66 248.2 395.28 248.053 395C247.92 394.72 247.673 394.52 247.313 394.4C246.966 394.28 246.473 394.22 245.833 394.22H242.233V393.26H245.833ZM243.213 389.3V399H241.973V389.3H243.213Z" fill="white"/>
</g>
<g filter="url(#filter3_d_129_14)">
<rect x="65.5" y="105.5" width="323" height="49" rx="24.5" stroke="white" shape-rendering="crispEdges"/>
<path d="M97.142 137V124.4H104.828V125.84H98.744V130.52H103.118V130.88H98.744V135.56H105.53V137H97.142ZM107.908 137V128H109.348V130.826C109.576 129.914 110.002 129.188 110.626 128.648C111.25 128.096 111.982 127.82 112.822 127.82C113.578 127.82 114.232 127.994 114.784 128.342C115.348 128.69 115.774 129.188 116.062 129.836C116.362 130.472 116.512 131.228 116.512 132.104V137H115.072V132.302C115.072 131.342 114.814 130.58 114.298 130.016C113.794 129.452 113.098 129.17 112.21 129.17C111.682 129.17 111.196 129.308 110.752 129.584C110.32 129.86 109.978 130.238 109.726 130.718C109.474 131.198 109.348 131.726 109.348 132.302V137H107.908ZM123.613 137.18C122.521 137.18 121.711 136.934 121.183 136.442C120.655 135.938 120.391 135.2 120.391 134.228V129.314H118.195V128H119.869C120.085 128 120.247 127.946 120.355 127.838C120.463 127.718 120.517 127.55 120.517 127.334V125.84H121.831L121.813 128H125.683V129.314H121.813V133.922C121.813 134.582 121.981 135.068 122.317 135.38C122.653 135.68 123.175 135.83 123.883 135.83C124.399 135.83 124.999 135.746 125.683 135.578V136.892C125.371 136.964 125.017 137.03 124.621 137.09C124.237 137.15 123.901 137.18 123.613 137.18ZM131.623 137.18C130.735 137.18 129.931 136.976 129.211 136.568C128.491 136.16 127.921 135.608 127.501 134.912C127.093 134.204 126.889 133.412 126.889 132.536C126.889 131.636 127.099 130.832 127.519 130.124C127.939 129.404 128.509 128.84 129.229 128.432C129.949 128.024 130.753 127.82 131.641 127.82C132.517 127.82 133.309 128.024 134.017 128.432C134.737 128.84 135.301 129.404 135.709 130.124C136.129 130.832 136.339 131.624 136.339 132.5C136.339 132.524 136.339 132.554 136.339 132.59C136.339 132.626 136.339 132.656 136.339 132.68H128.293C128.317 133.28 128.479 133.826 128.779 134.318C129.079 134.798 129.475 135.182 129.967 135.47C130.471 135.746 131.029 135.884 131.641 135.884C132.313 135.884 132.907 135.734 133.423 135.434C133.939 135.122 134.293 134.72 134.485 134.228H136.015C135.907 134.756 135.649 135.248 135.241 135.704C134.845 136.148 134.335 136.508 133.711 136.784C133.087 137.048 132.391 137.18 131.623 137.18ZM134.971 132.32C134.947 131.72 134.785 131.18 134.485 130.7C134.185 130.208 133.783 129.824 133.279 129.548C132.787 129.26 132.241 129.116 131.641 129.116C131.041 129.116 130.489 129.26 129.985 129.548C129.493 129.824 129.091 130.208 128.779 130.7C128.479 131.18 128.317 131.72 128.293 132.32H134.971ZM138.81 137V128H140.25V130.826C140.466 129.962 140.856 129.248 141.42 128.684C141.996 128.108 142.692 127.82 143.508 127.82C144.12 127.82 144.636 127.952 145.056 128.216C145.488 128.468 145.806 128.846 146.01 129.35C146.226 129.842 146.334 130.442 146.334 131.15V131.762H144.912V131.402C144.912 130.682 144.732 130.13 144.372 129.746C144.024 129.362 143.526 129.17 142.878 129.17C142.386 129.17 141.942 129.314 141.546 129.602C141.15 129.878 140.832 130.256 140.592 130.736C140.364 131.216 140.25 131.75 140.25 132.338V137H138.81ZM152.697 137V124.22H154.137V137H152.697ZM161.507 137.18C160.607 137.18 159.785 136.976 159.041 136.568C158.309 136.16 157.733 135.602 157.313 134.894C156.905 134.174 156.701 133.376 156.701 132.5C156.701 131.624 156.905 130.832 157.313 130.124C157.733 129.404 158.309 128.84 159.041 128.432C159.785 128.024 160.607 127.82 161.507 127.82C162.395 127.82 163.205 128.024 163.937 128.432C164.669 128.84 165.245 129.404 165.665 130.124C166.097 130.832 166.313 131.624 166.313 132.5C166.313 133.376 166.097 134.174 165.665 134.894C165.245 135.602 164.669 136.16 163.937 136.568C163.205 136.976 162.395 137.18 161.507 137.18ZM161.507 135.83C162.119 135.83 162.677 135.686 163.181 135.398C163.697 135.098 164.099 134.696 164.387 134.192C164.687 133.688 164.837 133.124 164.837 132.5C164.837 131.876 164.687 131.312 164.387 130.808C164.099 130.292 163.697 129.89 163.181 129.602C162.677 129.302 162.119 129.152 161.507 129.152C160.883 129.152 160.313 129.302 159.797 129.602C159.293 129.89 158.891 130.292 158.591 130.808C158.303 131.312 158.159 131.876 158.159 132.5C158.159 133.124 158.303 133.688 158.591 134.192C158.891 134.696 159.293 135.098 159.797 135.398C160.313 135.686 160.883 135.83 161.507 135.83ZM173.423 140.78C172.367 140.78 171.449 140.666 170.669 140.438C169.901 140.21 169.307 139.886 168.887 139.466C168.479 139.046 168.275 138.542 168.275 137.954C168.275 137.294 168.557 136.724 169.121 136.244C169.697 135.752 170.567 135.428 171.731 135.272C170.339 135.14 169.283 134.906 168.563 134.57C167.855 134.222 167.501 133.7 167.501 133.004C167.501 132.716 167.609 132.464 167.825 132.248C168.053 132.032 168.329 131.924 168.653 131.924C168.713 131.924 168.773 131.93 168.833 131.942C168.893 131.942 168.953 131.948 169.013 131.96C169.085 131.972 169.163 131.99 169.247 132.014C169.331 132.038 169.409 132.068 169.481 132.104C169.073 131.648 168.869 131.168 168.869 130.664C168.869 129.884 169.211 129.248 169.895 128.756C170.579 128.252 171.545 127.952 172.793 127.856V125.66H174.251V127.856C175.091 127.904 175.823 128.054 176.447 128.306C177.071 128.546 177.545 128.876 177.869 129.296C178.205 129.716 178.373 130.208 178.373 130.772C178.373 131.36 178.181 131.876 177.797 132.32C177.413 132.752 176.861 133.088 176.141 133.328C175.421 133.556 174.581 133.67 173.621 133.67C173.009 133.67 172.481 133.628 172.037 133.544C171.593 133.448 171.233 133.34 170.957 133.22C170.693 133.1 170.393 132.95 170.057 132.77C169.769 132.602 169.523 132.482 169.319 132.41C169.115 132.338 168.887 132.302 168.635 132.302C168.407 132.302 168.221 132.374 168.077 132.518C167.933 132.65 167.861 132.812 167.861 133.004C167.861 133.424 168.053 133.772 168.437 134.048C168.821 134.324 169.337 134.534 169.985 134.678C170.645 134.822 171.419 134.924 172.307 134.984C172.511 135.008 172.715 135.026 172.919 135.038C173.123 135.038 173.327 135.038 173.531 135.038C175.127 135.074 176.375 135.314 177.275 135.758C178.175 136.19 178.625 136.88 178.625 137.828C178.625 138.428 178.415 138.95 177.995 139.394C177.575 139.838 176.969 140.18 176.177 140.42C175.397 140.66 174.479 140.78 173.423 140.78ZM173.441 139.664C174.173 139.664 174.821 139.574 175.385 139.394C175.949 139.226 176.381 138.98 176.681 138.656C176.981 138.344 177.131 137.978 177.131 137.558C177.131 136.874 176.813 136.346 176.177 135.974C175.541 135.602 174.629 135.416 173.441 135.416C172.697 135.416 172.049 135.506 171.497 135.686C170.945 135.854 170.513 136.1 170.201 136.424C169.901 136.748 169.751 137.126 169.751 137.558C169.751 137.978 169.901 138.344 170.201 138.656C170.513 138.98 170.945 139.226 171.497 139.394C172.049 139.574 172.697 139.664 173.441 139.664ZM173.621 133.31C174.629 133.31 175.433 133.112 176.033 132.716C176.645 132.308 176.951 131.768 176.951 131.096C176.951 130.424 176.645 129.884 176.033 129.476C175.433 129.056 174.629 128.846 173.621 128.846C172.625 128.846 171.821 129.056 171.209 129.476C170.609 129.884 170.309 130.424 170.309 131.096C170.309 131.768 170.603 132.308 171.191 132.716C171.791 133.112 172.601 133.31 173.621 133.31ZM180.769 137V128H182.209V137H180.769ZM181.399 126.722L180.571 123.59H182.425L181.579 126.722H181.399ZM185.673 137V128H187.113V130.826C187.341 129.914 187.767 129.188 188.391 128.648C189.015 128.096 189.747 127.82 190.587 127.82C191.343 127.82 191.997 127.994 192.549 128.342C193.113 128.69 193.539 129.188 193.827 129.836C194.127 130.472 194.277 131.228 194.277 132.104V137H192.837V132.302C192.837 131.342 192.579 130.58 192.063 130.016C191.559 129.452 190.863 129.17 189.975 129.17C189.447 129.17 188.961 129.308 188.517 129.584C188.085 129.86 187.743 130.238 187.491 130.718C187.239 131.198 187.113 131.726 187.113 132.302V137H185.673Z" fill="white" fill-opacity="0.5"/>
<path d="M95 138.8H167.537V139.7H95V138.8ZM179.306 138.8H195.825V139.7H179.306V138.8Z" fill="white" fill-opacity="0.5"/>
</g>
<g filter="url(#filter4_d_129_14)">
<rect x="65.5" y="178.5" width="323" height="49" rx="24.5" stroke="white" shape-rendering="crispEdges"/>
<path d="M97.142 210V197.4H104.828V198.84H98.744V203.52H103.118V203.88H98.744V208.56H105.53V210H97.142ZM107.908 210V201H109.348V203.826C109.576 202.914 110.002 202.188 110.626 201.648C111.25 201.096 111.982 200.82 112.822 200.82C113.578 200.82 114.232 200.994 114.784 201.342C115.348 201.69 115.774 202.188 116.062 202.836C116.362 203.472 116.512 204.228 116.512 205.104V210H115.072V205.302C115.072 204.342 114.814 203.58 114.298 203.016C113.794 202.452 113.098 202.17 112.21 202.17C111.682 202.17 111.196 202.308 110.752 202.584C110.32 202.86 109.978 203.238 109.726 203.718C109.474 204.198 109.348 204.726 109.348 205.302V210H107.908ZM123.613 210.18C122.521 210.18 121.711 209.934 121.183 209.442C120.655 208.938 120.391 208.2 120.391 207.228V202.314H118.195V201H119.869C120.085 201 120.247 200.946 120.355 200.838C120.463 200.718 120.517 200.55 120.517 200.334V198.84H121.831L121.813 201H125.683V202.314H121.813V206.922C121.813 207.582 121.981 208.068 122.317 208.38C122.653 208.68 123.175 208.83 123.883 208.83C124.399 208.83 124.999 208.746 125.683 208.578V209.892C125.371 209.964 125.017 210.03 124.621 210.09C124.237 210.15 123.901 210.18 123.613 210.18ZM131.623 210.18C130.735 210.18 129.931 209.976 129.211 209.568C128.491 209.16 127.921 208.608 127.501 207.912C127.093 207.204 126.889 206.412 126.889 205.536C126.889 204.636 127.099 203.832 127.519 203.124C127.939 202.404 128.509 201.84 129.229 201.432C129.949 201.024 130.753 200.82 131.641 200.82C132.517 200.82 133.309 201.024 134.017 201.432C134.737 201.84 135.301 202.404 135.709 203.124C136.129 203.832 136.339 204.624 136.339 205.5C136.339 205.524 136.339 205.554 136.339 205.59C136.339 205.626 136.339 205.656 136.339 205.68H128.293C128.317 206.28 128.479 206.826 128.779 207.318C129.079 207.798 129.475 208.182 129.967 208.47C130.471 208.746 131.029 208.884 131.641 208.884C132.313 208.884 132.907 208.734 133.423 208.434C133.939 208.122 134.293 207.72 134.485 207.228H136.015C135.907 207.756 135.649 208.248 135.241 208.704C134.845 209.148 134.335 209.508 133.711 209.784C133.087 210.048 132.391 210.18 131.623 210.18ZM134.971 205.32C134.947 204.72 134.785 204.18 134.485 203.7C134.185 203.208 133.783 202.824 133.279 202.548C132.787 202.26 132.241 202.116 131.641 202.116C131.041 202.116 130.489 202.26 129.985 202.548C129.493 202.824 129.091 203.208 128.779 203.7C128.479 204.18 128.317 204.72 128.293 205.32H134.971ZM138.81 210V201H140.25V203.826C140.466 202.962 140.856 202.248 141.42 201.684C141.996 201.108 142.692 200.82 143.508 200.82C144.12 200.82 144.636 200.952 145.056 201.216C145.488 201.468 145.806 201.846 146.01 202.35C146.226 202.842 146.334 203.442 146.334 204.15V204.762H144.912V204.402C144.912 203.682 144.732 203.13 144.372 202.746C144.024 202.362 143.526 202.17 142.878 202.17C142.386 202.17 141.942 202.314 141.546 202.602C141.15 202.878 140.832 203.256 140.592 203.736C140.364 204.216 140.25 204.75 140.25 205.338V210H138.81ZM152.697 213.6V201H154.137V203.916C154.401 202.98 154.863 202.23 155.523 201.666C156.195 201.102 156.987 200.82 157.899 200.82C158.667 200.82 159.363 201.024 159.987 201.432C160.611 201.84 161.103 202.404 161.463 203.124C161.835 203.832 162.021 204.624 162.021 205.5C162.021 206.376 161.835 207.174 161.463 207.894C161.103 208.602 160.611 209.16 159.987 209.568C159.363 209.976 158.667 210.18 157.899 210.18C156.987 210.18 156.195 209.898 155.523 209.334C154.863 208.77 154.401 208.014 154.137 207.066V213.6H152.697ZM157.323 208.83C157.923 208.83 158.469 208.686 158.961 208.398C159.453 208.098 159.843 207.696 160.131 207.192C160.419 206.688 160.563 206.124 160.563 205.5C160.563 204.876 160.419 204.312 160.131 203.808C159.843 203.292 159.453 202.89 158.961 202.602C158.469 202.302 157.923 202.152 157.323 202.152C156.723 202.152 156.177 202.302 155.685 202.602C155.193 202.89 154.803 203.292 154.515 203.808C154.239 204.312 154.101 204.876 154.101 205.5C154.101 206.124 154.239 206.688 154.515 207.192C154.803 207.696 155.193 208.098 155.685 208.398C156.177 208.686 156.723 208.83 157.323 208.83ZM166.452 210.216C165.588 210.216 164.91 210.012 164.418 209.604C163.926 209.196 163.68 208.638 163.68 207.93C163.68 207.234 163.908 206.694 164.364 206.31C164.832 205.926 165.39 205.662 166.038 205.518C166.686 205.362 167.424 205.254 168.252 205.194C168.972 205.146 169.524 205.062 169.908 204.942C170.304 204.822 170.502 204.606 170.502 204.294C170.502 203.598 170.268 203.046 169.8 202.638C169.332 202.218 168.744 202.008 168.036 202.008C167.292 202.008 166.68 202.218 166.2 202.638C165.72 203.046 165.426 203.616 165.318 204.348H163.968C164.04 203.616 164.256 202.986 164.616 202.458C164.988 201.918 165.468 201.51 166.056 201.234C166.656 200.958 167.322 200.82 168.054 200.82C168.798 200.82 169.452 200.964 170.016 201.252C170.592 201.54 171.036 201.96 171.348 202.512C171.672 203.064 171.834 203.706 171.834 204.438V208.722H173.076V210H170.52V207.066C170.256 208.002 169.764 208.764 169.044 209.352C168.324 209.928 167.46 210.216 166.452 210.216ZM167.064 209.064C167.712 209.064 168.294 208.914 168.81 208.614C169.338 208.302 169.752 207.894 170.052 207.39C170.352 206.874 170.502 206.322 170.502 205.734L170.52 205.014C170.352 205.158 170.118 205.266 169.818 205.338C169.53 205.41 169.14 205.464 168.648 205.5C168.624 205.5 168.594 205.506 168.558 205.518C168.522 205.518 168.492 205.518 168.468 205.518C167.328 205.614 166.488 205.818 165.948 206.13C165.408 206.43 165.138 206.88 165.138 207.48C165.138 207.996 165.312 208.392 165.66 208.668C166.008 208.932 166.476 209.064 167.064 209.064ZM178.81 210.216C177.562 210.216 176.518 209.928 175.678 209.352C174.85 208.776 174.376 207.954 174.256 206.886H175.732C175.84 207.594 176.176 208.128 176.74 208.488C177.304 208.836 177.976 209.01 178.756 209.01C179.14 209.01 179.524 208.956 179.908 208.848C180.292 208.74 180.616 208.56 180.88 208.308C181.144 208.056 181.276 207.738 181.276 207.354C181.276 206.994 181.168 206.706 180.952 206.49C180.748 206.274 180.466 206.112 180.106 206.004C179.746 205.896 179.254 205.794 178.63 205.698C178.558 205.686 178.486 205.674 178.414 205.662C178.342 205.65 178.264 205.638 178.18 205.626C177.376 205.506 176.716 205.374 176.2 205.23C175.696 205.074 175.294 204.852 174.994 204.564C174.706 204.276 174.562 203.88 174.562 203.376C174.562 202.812 174.736 202.338 175.084 201.954C175.432 201.558 175.888 201.264 176.452 201.072C177.028 200.88 177.664 200.784 178.36 200.784C179.56 200.784 180.544 201.072 181.312 201.648C182.08 202.212 182.512 203.028 182.608 204.096H181.186C181.102 203.4 180.802 202.878 180.286 202.53C179.77 202.182 179.146 202.008 178.414 202.008C177.778 202.008 177.214 202.152 176.722 202.44C176.242 202.716 176.002 203.142 176.002 203.718C176.002 204.03 176.098 204.294 176.29 204.51C176.482 204.714 176.752 204.876 177.1 204.996C177.448 205.104 177.886 205.206 178.414 205.302C178.51 205.314 178.6 205.326 178.684 205.338C178.768 205.35 178.858 205.362 178.954 205.374C179.002 205.386 179.044 205.392 179.08 205.392C179.116 205.392 179.158 205.398 179.206 205.41C179.974 205.53 180.598 205.668 181.078 205.824C181.57 205.98 181.954 206.214 182.23 206.526C182.518 206.826 182.662 207.222 182.662 207.714C182.662 208.266 182.476 208.734 182.104 209.118C181.732 209.49 181.252 209.766 180.664 209.946C180.088 210.126 179.47 210.216 178.81 210.216ZM188.689 210.216C187.441 210.216 186.397 209.928 185.557 209.352C184.729 208.776 184.255 207.954 184.135 206.886H185.611C185.719 207.594 186.055 208.128 186.619 208.488C187.183 208.836 187.855 209.01 188.635 209.01C189.019 209.01 189.403 208.956 189.787 208.848C190.171 208.74 190.495 208.56 190.759 208.308C191.023 208.056 191.155 207.738 191.155 207.354C191.155 206.994 191.047 206.706 190.831 206.49C190.627 206.274 190.345 206.112 189.985 206.004C189.625 205.896 189.133 205.794 188.509 205.698C188.437 205.686 188.365 205.674 188.293 205.662C188.221 205.65 188.143 205.638 188.059 205.626C187.255 205.506 186.595 205.374 186.079 205.23C185.575 205.074 185.173 204.852 184.873 204.564C184.585 204.276 184.441 203.88 184.441 203.376C184.441 202.812 184.615 202.338 184.963 201.954C185.311 201.558 185.767 201.264 186.331 201.072C186.907 200.88 187.543 200.784 188.239 200.784C189.439 200.784 190.423 201.072 191.191 201.648C191.959 202.212 192.391 203.028 192.487 204.096H191.065C190.981 203.4 190.681 202.878 190.165 202.53C189.649 202.182 189.025 202.008 188.293 202.008C187.657 202.008 187.093 202.152 186.601 202.44C186.121 202.716 185.881 203.142 185.881 203.718C185.881 204.03 185.977 204.294 186.169 204.51C186.361 204.714 186.631 204.876 186.979 204.996C187.327 205.104 187.765 205.206 188.293 205.302C188.389 205.314 188.479 205.326 188.563 205.338C188.647 205.35 188.737 205.362 188.833 205.374C188.881 205.386 188.923 205.392 188.959 205.392C188.995 205.392 189.037 205.398 189.085 205.41C189.853 205.53 190.477 205.668 190.957 205.824C191.449 205.98 191.833 206.214 192.109 206.526C192.397 206.826 192.541 207.222 192.541 207.714C192.541 208.266 192.355 208.734 191.983 209.118C191.611 209.49 191.131 209.766 190.543 209.946C189.967 210.126 189.349 210.216 188.689 210.216ZM196.36 210L193.588 201H195.136L197.656 209.118L200.104 201H200.446L202.876 209.118L205.432 201H206.926L204.154 210H202.768L200.284 201.72L197.8 210H196.36ZM212.8 210.18C211.9 210.18 211.078 209.976 210.334 209.568C209.602 209.16 209.026 208.602 208.606 207.894C208.198 207.174 207.994 206.376 207.994 205.5C207.994 204.624 208.198 203.832 208.606 203.124C209.026 202.404 209.602 201.84 210.334 201.432C211.078 201.024 211.9 200.82 212.8 200.82C213.688 200.82 214.498 201.024 215.23 201.432C215.962 201.84 216.538 202.404 216.958 203.124C217.39 203.832 217.606 204.624 217.606 205.5C217.606 206.376 217.39 207.174 216.958 207.894C216.538 208.602 215.962 209.16 215.23 209.568C214.498 209.976 213.688 210.18 212.8 210.18ZM212.8 208.83C213.412 208.83 213.97 208.686 214.474 208.398C214.99 208.098 215.392 207.696 215.68 207.192C215.98 206.688 216.13 206.124 216.13 205.5C216.13 204.876 215.98 204.312 215.68 203.808C215.392 203.292 214.99 202.89 214.474 202.602C213.97 202.302 213.412 202.152 212.8 202.152C212.176 202.152 211.606 202.302 211.09 202.602C210.586 202.89 210.184 203.292 209.884 203.808C209.596 204.312 209.452 204.876 209.452 205.5C209.452 206.124 209.596 206.688 209.884 207.192C210.184 207.696 210.586 208.098 211.09 208.398C211.606 208.686 212.176 208.83 212.8 208.83ZM220.162 210V201H221.602V203.826C221.818 202.962 222.208 202.248 222.772 201.684C223.348 201.108 224.044 200.82 224.86 200.82C225.472 200.82 225.988 200.952 226.408 201.216C226.84 201.468 227.158 201.846 227.362 202.35C227.578 202.842 227.686 203.442 227.686 204.15V204.762H226.264V204.402C226.264 203.682 226.084 203.13 225.724 202.746C225.376 202.362 224.878 202.17 224.23 202.17C223.738 202.17 223.294 202.314 222.898 202.602C222.502 202.878 222.184 203.256 221.944 203.736C221.716 204.216 221.602 204.75 221.602 205.338V210H220.162ZM232.841 210.18C232.073 210.18 231.377 209.976 230.753 209.568C230.129 209.16 229.637 208.602 229.277 207.894C228.917 207.174 228.737 206.376 228.737 205.5C228.737 204.624 228.917 203.832 229.277 203.124C229.637 202.404 230.129 201.84 230.753 201.432C231.377 201.024 232.073 200.82 232.841 200.82C233.753 200.82 234.539 201.102 235.199 201.666C235.871 202.23 236.345 202.98 236.621 203.916V197.22H238.043V210H236.621V207.066C236.345 208.014 235.871 208.77 235.199 209.334C234.539 209.898 233.753 210.18 232.841 210.18ZM233.417 208.83C234.017 208.83 234.563 208.686 235.055 208.398C235.547 208.098 235.931 207.696 236.207 207.192C236.495 206.688 236.639 206.124 236.639 205.5C236.639 204.876 236.495 204.312 236.207 203.808C235.931 203.292 235.547 202.89 235.055 202.602C234.563 202.302 234.017 202.152 233.417 202.152C232.817 202.152 232.271 202.302 231.779 202.602C231.287 202.89 230.897 203.292 230.609 203.808C230.333 204.312 230.195 204.876 230.195 205.5C230.195 206.124 230.333 206.688 230.609 207.192C230.897 207.696 231.287 208.098 231.779 208.398C232.271 208.686 232.817 208.83 233.417 208.83Z" fill="white" fill-opacity="0.5"/>
<path d="M95 211.8H151.795V212.7H95V211.8ZM155.041 211.8H239.771V212.7H155.041V211.8Z" fill="white" fill-opacity="0.5"/>
</g>
<mask id="path-16-inside-1_129_14" fill="white">
<path d="M176 16H269V54H176V16Z"/>
</mask>
<path d="M269 54V53H176V54V55H269V54Z" fill="white" mask="url(#path-16-inside-1_129_14)"/>
<path d="M197.04 25.92C197.232 25.92 197.403 25.9733 197.552 26.08C197.723 26.1867 197.829 26.336 197.872 26.528L205.264 48H203.088L196.88 29.376C196.795 29.0773 196.699 28.7787 196.592 28.48C196.485 28.16 196.389 27.8613 196.304 27.584H195.376C195.291 27.8613 195.195 28.16 195.088 28.48C195.003 28.7787 194.907 29.0773 194.8 29.376L188.592 48H186.416L193.808 26.528C193.872 26.336 193.979 26.1867 194.128 26.08C194.277 25.9733 194.448 25.92 194.64 25.92H197.04ZM201.424 38.848V40.672H190.224V38.848H201.424ZM209.944 32.48L210.2 35.424L210.391 35.904V48H208.376V32.48H209.944ZM217.688 32.096L217.432 34.016H216.664C215.661 34.016 214.669 34.24 213.688 34.688C212.728 35.1147 211.565 35.7333 210.2 36.544L210.04 35.2C211.234 34.24 212.418 33.4827 213.592 32.928C214.765 32.3733 215.906 32.096 217.016 32.096H217.688ZM234.281 32.48L228.361 47.488C228.297 47.6373 228.201 47.7653 228.073 47.872C227.945 47.9573 227.785 48 227.593 48H225.705C225.534 48 225.374 47.9573 225.225 47.872C225.097 47.7653 225.001 47.6373 224.937 47.488L219.017 32.48H221.193L225.417 43.712C225.609 44.16 225.779 44.6293 225.929 45.12C226.099 45.5893 226.27 46.048 226.441 46.496H226.857C227.049 46.0267 227.23 45.5573 227.401 45.088C227.571 44.6187 227.742 44.1493 227.913 43.68L232.137 32.48H234.281ZM239.831 32.48V48H237.847V32.48H239.831ZM239.319 25.952C239.767 25.952 239.991 26.176 239.991 26.624V28.512C239.991 28.96 239.767 29.184 239.319 29.184H238.359C237.911 29.184 237.687 28.96 237.687 28.512V26.624C237.687 26.176 237.911 25.952 238.359 25.952H239.319ZM250.336 32.096C250.998 32.096 251.691 32.1173 252.416 32.16C253.163 32.2027 253.899 32.256 254.624 32.32C255.35 32.384 256.032 32.4587 256.672 32.544L256.48 34.048C255.52 33.984 254.539 33.9413 253.536 33.92C252.534 33.8773 251.552 33.856 250.592 33.856C249.568 33.8347 248.747 33.8667 248.128 33.952C247.531 34.016 247.083 34.2293 246.784 34.592C246.507 34.9333 246.368 35.5093 246.368 36.32C246.368 37.2373 246.571 37.8667 246.976 38.208C247.382 38.528 247.979 38.7627 248.768 38.912L253.536 39.808C254.731 40.0427 255.616 40.4693 256.192 41.088C256.79 41.7067 257.088 42.656 257.088 43.936C257.088 45.2373 256.854 46.1973 256.384 46.816C255.915 47.4347 255.2 47.84 254.24 48.032C253.28 48.2453 252.086 48.352 250.656 48.352C250.038 48.352 249.206 48.3307 248.16 48.288C247.136 48.2453 245.995 48.128 244.736 47.936L244.896 46.464C245.472 46.4853 246.048 46.5173 246.624 46.56C247.2 46.5813 247.787 46.6027 248.384 46.624C249.003 46.624 249.643 46.624 250.304 46.624C251.52 46.6027 252.48 46.5387 253.184 46.432C253.888 46.304 254.39 46.048 254.688 45.664C254.987 45.28 255.136 44.704 255.136 43.936C255.136 43.04 254.891 42.432 254.4 42.112C253.931 41.792 253.323 41.5573 252.576 41.408L247.84 40.544C247.051 40.3733 246.4 40.128 245.888 39.808C245.376 39.4667 244.992 39.0187 244.736 38.464C244.502 37.888 244.384 37.1733 244.384 36.32C244.384 35.0827 244.598 34.1653 245.024 33.568C245.451 32.9493 246.102 32.544 246.976 32.352C247.851 32.16 248.971 32.0747 250.336 32.096Z" fill="white"/>
<g filter="url(#filter5_i_129_14)">
<rect x="72" y="253" width="18" height="18" rx="5" fill="#727272"/>
</g>
<path d="M102.852 265.119C102.29 265.119 101.788 265.023 101.348 264.83C100.911 264.636 100.563 264.368 100.304 264.024C100.048 263.678 99.9091 263.276 99.8864 262.818H100.96C100.983 263.099 101.08 263.342 101.25 263.547C101.42 263.749 101.643 263.905 101.919 264.016C102.195 264.126 102.5 264.182 102.835 264.182C103.21 264.182 103.543 264.116 103.832 263.986C104.122 263.855 104.349 263.673 104.514 263.44C104.679 263.207 104.761 262.938 104.761 262.631C104.761 262.31 104.682 262.027 104.523 261.783C104.364 261.536 104.131 261.342 103.824 261.203C103.517 261.064 103.142 260.994 102.699 260.994H102V260.057H102.699C103.045 260.057 103.349 259.994 103.611 259.869C103.875 259.744 104.081 259.568 104.229 259.341C104.379 259.114 104.455 258.847 104.455 258.54C104.455 258.244 104.389 257.987 104.259 257.768C104.128 257.55 103.943 257.379 103.705 257.257C103.469 257.135 103.19 257.074 102.869 257.074C102.568 257.074 102.284 257.129 102.017 257.24C101.753 257.348 101.537 257.506 101.369 257.713C101.202 257.918 101.111 258.165 101.097 258.455H100.074C100.091 257.997 100.229 257.597 100.487 257.253C100.746 256.906 101.084 256.636 101.501 256.443C101.922 256.25 102.384 256.153 102.886 256.153C103.426 256.153 103.889 256.263 104.276 256.482C104.662 256.697 104.959 256.983 105.166 257.338C105.374 257.693 105.477 258.077 105.477 258.489C105.477 258.98 105.348 259.399 105.089 259.746C104.834 260.092 104.486 260.332 104.045 260.466V260.534C104.597 260.625 105.027 260.859 105.337 261.237C105.646 261.612 105.801 262.077 105.801 262.631C105.801 263.105 105.672 263.531 105.413 263.909C105.158 264.284 104.808 264.58 104.365 264.795C103.922 265.011 103.418 265.119 102.852 265.119ZM109.487 265.153C109.072 265.153 108.696 265.075 108.358 264.919C108.02 264.76 107.751 264.531 107.553 264.233C107.354 263.932 107.254 263.568 107.254 263.142C107.254 262.767 107.328 262.463 107.476 262.23C107.624 261.994 107.821 261.81 108.068 261.676C108.315 261.543 108.588 261.443 108.886 261.378C109.188 261.31 109.49 261.256 109.794 261.216C110.192 261.165 110.514 261.126 110.761 261.101C111.011 261.072 111.193 261.026 111.307 260.96C111.423 260.895 111.482 260.781 111.482 260.619V260.585C111.482 260.165 111.366 259.838 111.136 259.605C110.909 259.372 110.564 259.256 110.101 259.256C109.621 259.256 109.244 259.361 108.972 259.571C108.699 259.781 108.507 260.006 108.396 260.244L107.442 259.903C107.612 259.506 107.839 259.196 108.124 258.974C108.411 258.75 108.723 258.594 109.061 258.506C109.402 258.415 109.737 258.369 110.067 258.369C110.277 258.369 110.518 258.395 110.791 258.446C111.067 258.494 111.332 258.595 111.588 258.749C111.847 258.902 112.061 259.134 112.232 259.443C112.402 259.753 112.487 260.168 112.487 260.688V265H111.482V264.114H111.43C111.362 264.256 111.249 264.408 111.089 264.57C110.93 264.732 110.719 264.869 110.455 264.983C110.19 265.097 109.868 265.153 109.487 265.153ZM109.641 264.25C110.038 264.25 110.374 264.172 110.646 264.016C110.922 263.859 111.129 263.658 111.268 263.411C111.411 263.163 111.482 262.903 111.482 262.631V261.71C111.439 261.761 111.345 261.808 111.2 261.851C111.058 261.891 110.893 261.926 110.706 261.957C110.521 261.986 110.341 262.011 110.165 262.034C109.991 262.054 109.851 262.071 109.743 262.085C109.482 262.119 109.237 262.175 109.01 262.251C108.786 262.325 108.604 262.437 108.464 262.588C108.328 262.736 108.26 262.937 108.26 263.193C108.26 263.543 108.389 263.807 108.648 263.986C108.909 264.162 109.24 264.25 109.641 264.25ZM114.323 265V258.455H119.471V265H118.465V259.392H115.328V265H114.323ZM123.966 265.136C123.375 265.136 122.857 264.996 122.411 264.714C121.968 264.433 121.621 264.04 121.371 263.534C121.124 263.028 121 262.437 121 261.761C121 261.08 121.124 260.484 121.371 259.976C121.621 259.467 121.968 259.072 122.411 258.791C122.857 258.51 123.375 258.369 123.966 258.369C124.557 258.369 125.074 258.51 125.517 258.791C125.963 259.072 126.31 259.467 126.557 259.976C126.807 260.484 126.932 261.08 126.932 261.761C126.932 262.437 126.807 263.028 126.557 263.534C126.31 264.04 125.963 264.433 125.517 264.714C125.074 264.996 124.557 265.136 123.966 265.136ZM123.966 264.233C124.415 264.233 124.784 264.118 125.074 263.888C125.364 263.658 125.578 263.355 125.718 262.98C125.857 262.605 125.926 262.199 125.926 261.761C125.926 261.324 125.857 260.916 125.718 260.538C125.578 260.161 125.364 259.855 125.074 259.622C124.784 259.389 124.415 259.273 123.966 259.273C123.517 259.273 123.148 259.389 122.858 259.622C122.569 259.855 122.354 260.161 122.215 260.538C122.076 260.916 122.006 261.324 122.006 261.761C122.006 262.199 122.076 262.605 122.215 262.98C122.354 263.355 122.569 263.658 122.858 263.888C123.148 264.118 123.517 264.233 123.966 264.233ZM132.047 263.636L134.331 258.455H135.286L132.456 265H131.638L128.859 258.455H129.797L132.047 263.636ZM129.473 258.455V265H128.467V258.455H129.473ZM134.621 265V258.455H135.626V265H134.621ZM141.848 261.267V262.205H138.234V261.267H141.848ZM138.473 258.455V265H137.467V258.455H138.473ZM142.615 258.455V265H141.609V258.455H142.615ZM145.457 263.517L148.611 258.455H149.77V265H148.764V259.938L145.628 265H144.452V258.455H145.457V263.517ZM150.721 259.392V258.455H156.039V259.392H153.892V265H152.886V259.392H150.721ZM158.376 260.824H160.251C161.018 260.824 161.604 261.018 162.011 261.408C162.417 261.797 162.62 262.29 162.62 262.886C162.62 263.278 162.529 263.635 162.347 263.956C162.165 264.274 161.898 264.528 161.546 264.719C161.194 264.906 160.762 265 160.251 265H157.506V258.455H158.512V264.062H160.251C160.648 264.062 160.975 263.957 161.231 263.747C161.487 263.537 161.614 263.267 161.614 262.938C161.614 262.591 161.487 262.308 161.231 262.089C160.975 261.871 160.648 261.761 160.251 261.761H158.376V260.824ZM171.105 263.636L173.39 258.455H174.344L171.515 265H170.696L167.918 258.455H168.855L171.105 263.636ZM168.532 258.455V265H167.526V258.455H168.532ZM173.679 265V258.455H174.685V265H173.679ZM179.27 265.136C178.64 265.136 178.096 264.997 177.638 264.719C177.184 264.438 176.833 264.045 176.586 263.543C176.341 263.037 176.219 262.449 176.219 261.778C176.219 261.108 176.341 260.517 176.586 260.006C176.833 259.491 177.176 259.091 177.617 258.804C178.06 258.514 178.577 258.369 179.168 258.369C179.509 258.369 179.846 258.426 180.178 258.54C180.51 258.653 180.813 258.838 181.086 259.094C181.358 259.347 181.576 259.682 181.738 260.099C181.9 260.517 181.98 261.031 181.98 261.642V262.068H176.935V261.199H180.958C180.958 260.83 180.884 260.5 180.736 260.21C180.591 259.92 180.384 259.692 180.114 259.524C179.847 259.357 179.532 259.273 179.168 259.273C178.767 259.273 178.421 259.372 178.128 259.571C177.838 259.767 177.615 260.023 177.459 260.338C177.303 260.653 177.225 260.991 177.225 261.352V261.932C177.225 262.426 177.31 262.845 177.48 263.189C177.654 263.53 177.894 263.79 178.201 263.969C178.507 264.145 178.864 264.233 179.27 264.233C179.534 264.233 179.773 264.196 179.986 264.122C180.202 264.045 180.388 263.932 180.544 263.781C180.701 263.628 180.821 263.437 180.907 263.21L181.878 263.483C181.776 263.812 181.604 264.102 181.363 264.352C181.121 264.599 180.823 264.793 180.468 264.932C180.113 265.068 179.713 265.136 179.27 265.136ZM187.891 261.267V262.205H184.277V261.267H187.891ZM184.516 258.455V265H183.51V258.455H184.516ZM188.658 258.455V265H187.652V258.455H188.658ZM194.432 265V259.375H192.694C192.301 259.375 191.993 259.466 191.769 259.648C191.544 259.83 191.432 260.08 191.432 260.398C191.432 260.71 191.533 260.956 191.735 261.135C191.939 261.314 192.219 261.403 192.574 261.403H194.688V262.341H192.574C192.131 262.341 191.749 262.263 191.428 262.107C191.107 261.95 190.86 261.727 190.686 261.438C190.513 261.145 190.426 260.798 190.426 260.398C190.426 259.994 190.517 259.648 190.699 259.358C190.881 259.068 191.141 258.845 191.479 258.689C191.82 258.533 192.225 258.455 192.694 258.455H195.387V265H194.432ZM190.069 265L191.926 261.744H193.017L191.159 265H190.069Z" fill="white"/>
<path d="M281.415 265.119C280.852 265.119 280.351 265.023 279.911 264.83C279.473 264.636 279.125 264.368 278.866 264.024C278.611 263.678 278.472 263.276 278.449 262.818H279.523C279.545 263.099 279.642 263.342 279.812 263.547C279.983 263.749 280.206 263.905 280.482 264.016C280.757 264.126 281.063 264.182 281.398 264.182C281.773 264.182 282.105 264.116 282.395 263.986C282.685 263.855 282.912 263.673 283.077 263.44C283.241 263.207 283.324 262.938 283.324 262.631C283.324 262.31 283.244 262.027 283.085 261.783C282.926 261.536 282.693 261.342 282.386 261.203C282.08 261.064 281.705 260.994 281.261 260.994H280.562V260.057H281.261C281.608 260.057 281.912 259.994 282.173 259.869C282.438 259.744 282.643 259.568 282.791 259.341C282.942 259.114 283.017 258.847 283.017 258.54C283.017 258.244 282.952 257.987 282.821 257.768C282.69 257.55 282.506 257.379 282.267 257.257C282.031 257.135 281.753 257.074 281.432 257.074C281.131 257.074 280.847 257.129 280.58 257.24C280.315 257.348 280.099 257.506 279.932 257.713C279.764 257.918 279.673 258.165 279.659 258.455H278.636C278.653 257.997 278.791 257.597 279.05 257.253C279.308 256.906 279.646 256.636 280.064 256.443C280.484 256.25 280.946 256.153 281.449 256.153C281.989 256.153 282.452 256.263 282.838 256.482C283.224 256.697 283.521 256.983 283.729 257.338C283.936 257.693 284.04 258.077 284.04 258.489C284.04 258.98 283.911 259.399 283.652 259.746C283.396 260.092 283.048 260.332 282.608 260.466V260.534C283.159 260.625 283.589 260.859 283.899 261.237C284.209 261.612 284.364 262.077 284.364 262.631C284.364 263.105 284.234 263.531 283.976 263.909C283.72 264.284 283.371 264.58 282.928 264.795C282.484 265.011 281.98 265.119 281.415 265.119ZM288.05 265.153C287.635 265.153 287.259 265.075 286.92 264.919C286.582 264.76 286.314 264.531 286.115 264.233C285.916 263.932 285.817 263.568 285.817 263.142C285.817 262.767 285.891 262.463 286.038 262.23C286.186 261.994 286.384 261.81 286.631 261.676C286.878 261.543 287.151 261.443 287.449 261.378C287.75 261.31 288.053 261.256 288.357 261.216C288.754 261.165 289.077 261.126 289.324 261.101C289.574 261.072 289.756 261.026 289.869 260.96C289.986 260.895 290.044 260.781 290.044 260.619V260.585C290.044 260.165 289.929 259.838 289.699 259.605C289.472 259.372 289.126 259.256 288.663 259.256C288.183 259.256 287.807 259.361 287.534 259.571C287.261 259.781 287.07 260.006 286.959 260.244L286.004 259.903C286.175 259.506 286.402 259.196 286.686 258.974C286.973 258.75 287.286 258.594 287.624 258.506C287.964 258.415 288.3 258.369 288.629 258.369C288.839 258.369 289.081 258.395 289.354 258.446C289.629 258.494 289.895 258.595 290.151 258.749C290.409 258.902 290.624 259.134 290.794 259.443C290.964 259.753 291.05 260.168 291.05 260.688V265H290.044V264.114H289.993C289.925 264.256 289.811 264.408 289.652 264.57C289.493 264.732 289.281 264.869 289.017 264.983C288.753 265.097 288.43 265.153 288.05 265.153ZM288.203 264.25C288.601 264.25 288.936 264.172 289.209 264.016C289.484 263.859 289.692 263.658 289.831 263.411C289.973 263.163 290.044 262.903 290.044 262.631V261.71C290.001 261.761 289.908 261.808 289.763 261.851C289.621 261.891 289.456 261.926 289.268 261.957C289.084 261.986 288.903 262.011 288.727 262.034C288.554 262.054 288.413 262.071 288.305 262.085C288.044 262.119 287.8 262.175 287.572 262.251C287.348 262.325 287.166 262.437 287.027 262.588C286.891 262.736 286.822 262.937 286.822 263.193C286.822 263.543 286.952 263.807 287.21 263.986C287.472 264.162 287.803 264.25 288.203 264.25ZM297.743 256L298.255 256.614C298.056 256.807 297.826 256.942 297.564 257.018C297.303 257.095 297.007 257.142 296.678 257.159C296.348 257.176 295.982 257.193 295.578 257.21C295.124 257.227 294.748 257.338 294.449 257.543C294.151 257.747 293.921 258.043 293.759 258.429C293.597 258.815 293.493 259.29 293.448 259.852H293.533C293.755 259.443 294.061 259.142 294.453 258.949C294.846 258.756 295.266 258.659 295.715 258.659C296.226 258.659 296.686 258.778 297.096 259.017C297.505 259.256 297.828 259.609 298.067 260.078C298.306 260.547 298.425 261.125 298.425 261.812C298.425 262.497 298.303 263.088 298.059 263.585C297.817 264.082 297.478 264.466 297.04 264.736C296.605 265.003 296.096 265.136 295.51 265.136C294.925 265.136 294.412 264.999 293.972 264.723C293.532 264.445 293.189 264.033 292.945 263.487C292.701 262.939 292.578 262.261 292.578 261.455V260.756C292.578 259.298 292.826 258.193 293.32 257.44C293.817 256.687 294.564 256.298 295.561 256.273C295.914 256.261 296.228 256.259 296.503 256.264C296.779 256.27 297.019 256.257 297.223 256.226C297.428 256.195 297.601 256.119 297.743 256ZM295.51 264.233C295.905 264.233 296.245 264.134 296.529 263.935C296.816 263.736 297.036 263.456 297.189 263.095C297.343 262.732 297.419 262.304 297.419 261.812C297.419 261.335 297.341 260.929 297.185 260.594C297.032 260.259 296.811 260.003 296.525 259.827C296.238 259.651 295.894 259.562 295.493 259.562C295.201 259.562 294.938 259.612 294.705 259.712C294.472 259.811 294.273 259.957 294.108 260.151C293.944 260.344 293.816 260.58 293.725 260.858C293.637 261.136 293.59 261.455 293.584 261.812C293.584 262.545 293.756 263.132 294.1 263.572C294.444 264.013 294.914 264.233 295.51 264.233ZM300.833 260.824H302.708C303.475 260.824 304.061 261.018 304.468 261.408C304.874 261.797 305.077 262.29 305.077 262.886C305.077 263.278 304.986 263.635 304.804 263.956C304.623 264.274 304.355 264.528 304.003 264.719C303.651 264.906 303.219 265 302.708 265H299.963V258.455H300.969V264.062H302.708C303.105 264.062 303.432 263.957 303.688 263.747C303.944 263.537 304.071 263.267 304.071 262.938C304.071 262.591 303.944 262.308 303.688 262.089C303.432 261.871 303.105 261.761 302.708 261.761H300.833V260.824ZM306.117 265V258.455H307.123V265H306.117ZM308.384 265V264.062H308.623C308.819 264.062 308.982 264.024 309.113 263.947C309.243 263.868 309.348 263.73 309.428 263.534C309.51 263.335 309.573 263.06 309.615 262.707C309.661 262.352 309.694 261.901 309.713 261.352L309.833 258.455H314.196V265H313.191V259.392H310.787L310.685 261.727C310.662 262.264 310.614 262.737 310.54 263.146C310.469 263.553 310.36 263.893 310.212 264.169C310.067 264.445 309.874 264.652 309.632 264.791C309.391 264.93 309.088 265 308.725 265H308.384ZM319.417 265V258.455H324.564V265H323.559V259.392H320.422V265H319.417ZM328.327 265.153C327.912 265.153 327.536 265.075 327.198 264.919C326.86 264.76 326.591 264.531 326.392 264.233C326.194 263.932 326.094 263.568 326.094 263.142C326.094 262.767 326.168 262.463 326.316 262.23C326.463 261.994 326.661 261.81 326.908 261.676C327.155 261.543 327.428 261.443 327.726 261.378C328.027 261.31 328.33 261.256 328.634 261.216C329.032 261.165 329.354 261.126 329.601 261.101C329.851 261.072 330.033 261.026 330.147 260.96C330.263 260.895 330.321 260.781 330.321 260.619V260.585C330.321 260.165 330.206 259.838 329.976 259.605C329.749 259.372 329.404 259.256 328.941 259.256C328.461 259.256 328.084 259.361 327.811 259.571C327.539 259.781 327.347 260.006 327.236 260.244L326.282 259.903C326.452 259.506 326.679 259.196 326.963 258.974C327.25 258.75 327.563 258.594 327.901 258.506C328.242 258.415 328.577 258.369 328.907 258.369C329.117 258.369 329.358 258.395 329.631 258.446C329.907 258.494 330.172 258.595 330.428 258.749C330.686 258.902 330.901 259.134 331.071 259.443C331.242 259.753 331.327 260.168 331.327 260.688V265H330.321V264.114H330.27C330.202 264.256 330.088 264.408 329.929 264.57C329.77 264.732 329.559 264.869 329.294 264.983C329.03 265.097 328.708 265.153 328.327 265.153ZM328.48 264.25C328.878 264.25 329.213 264.172 329.486 264.016C329.762 263.859 329.969 263.658 330.108 263.411C330.25 263.163 330.321 262.903 330.321 262.631V261.71C330.279 261.761 330.185 261.808 330.04 261.851C329.898 261.891 329.733 261.926 329.546 261.957C329.361 261.986 329.181 262.011 329.005 262.034C328.831 262.054 328.691 262.071 328.583 262.085C328.321 262.119 328.077 262.175 327.85 262.251C327.625 262.325 327.444 262.437 327.304 262.588C327.168 262.736 327.1 262.937 327.1 263.193C327.1 263.543 327.229 263.807 327.488 263.986C327.749 264.162 328.08 264.25 328.48 264.25ZM333.163 267.455V258.455H334.134V259.494H334.254C334.327 259.381 334.43 259.236 334.56 259.06C334.694 258.881 334.884 258.722 335.131 258.582C335.381 258.44 335.719 258.369 336.146 258.369C336.697 258.369 337.183 258.507 337.603 258.783C338.023 259.058 338.352 259.449 338.587 259.955C338.823 260.46 338.941 261.057 338.941 261.744C338.941 262.438 338.823 263.038 338.587 263.547C338.352 264.053 338.025 264.445 337.607 264.723C337.19 264.999 336.708 265.136 336.163 265.136C335.742 265.136 335.406 265.067 335.153 264.928C334.9 264.786 334.705 264.625 334.569 264.446C334.433 264.264 334.327 264.114 334.254 263.994H334.168V267.455H333.163ZM334.151 261.727C334.151 262.222 334.224 262.658 334.369 263.036C334.513 263.411 334.725 263.705 335.004 263.918C335.282 264.128 335.623 264.233 336.026 264.233C336.447 264.233 336.798 264.122 337.079 263.901C337.363 263.676 337.576 263.375 337.718 262.997C337.863 262.616 337.935 262.193 337.935 261.727C337.935 261.267 337.864 260.852 337.722 260.483C337.583 260.111 337.371 259.817 337.087 259.601C336.806 259.382 336.452 259.273 336.026 259.273C335.617 259.273 335.273 259.376 334.995 259.584C334.717 259.788 334.506 260.075 334.364 260.445C334.222 260.811 334.151 261.239 334.151 261.727ZM343.134 265.136C342.543 265.136 342.025 264.996 341.579 264.714C341.136 264.433 340.789 264.04 340.539 263.534C340.292 263.028 340.168 262.437 340.168 261.761C340.168 261.08 340.292 260.484 340.539 259.976C340.789 259.467 341.136 259.072 341.579 258.791C342.025 258.51 342.543 258.369 343.134 258.369C343.725 258.369 344.242 258.51 344.685 258.791C345.131 259.072 345.478 259.467 345.725 259.976C345.975 260.484 346.1 261.08 346.1 261.761C346.1 262.437 345.975 263.028 345.725 263.534C345.478 264.04 345.131 264.433 344.685 264.714C344.242 264.996 343.725 265.136 343.134 265.136ZM343.134 264.233C343.583 264.233 343.952 264.118 344.242 263.888C344.532 263.658 344.746 263.355 344.886 262.98C345.025 262.605 345.094 262.199 345.094 261.761C345.094 261.324 345.025 260.916 344.886 260.538C344.746 260.161 344.532 259.855 344.242 259.622C343.952 259.389 343.583 259.273 343.134 259.273C342.685 259.273 342.316 259.389 342.026 259.622C341.737 259.855 341.522 260.161 341.383 260.538C341.244 260.916 341.174 261.324 341.174 261.761C341.174 262.199 341.244 262.605 341.383 262.98C341.522 263.355 341.737 263.658 342.026 263.888C342.316 264.118 342.685 264.233 343.134 264.233ZM347.056 265V264.062H347.294C347.49 264.062 347.654 264.024 347.784 263.947C347.915 263.868 348.02 263.73 348.1 263.534C348.182 263.335 348.245 263.06 348.287 262.707C348.333 262.352 348.365 261.901 348.385 261.352L348.505 258.455H352.868V265H351.863V259.392H349.459L349.357 261.727C349.334 262.264 349.286 262.737 349.212 263.146C349.141 263.553 349.032 263.893 348.884 264.169C348.739 264.445 348.546 264.652 348.304 264.791C348.063 264.93 347.76 265 347.397 265H347.056ZM355.583 260.824H357.458C358.225 260.824 358.811 261.018 359.218 261.408C359.624 261.797 359.827 262.29 359.827 262.886C359.827 263.278 359.736 263.635 359.554 263.956C359.373 264.274 359.105 264.528 358.753 264.719C358.401 264.906 357.969 265 357.458 265H354.713V258.455H355.719V264.062H357.458C357.855 264.062 358.182 263.957 358.438 263.747C358.694 263.537 358.821 263.267 358.821 262.938C358.821 262.591 358.694 262.308 358.438 262.089C358.182 261.871 357.855 261.761 357.458 261.761H355.583V260.824Z" fill="white"/>
<defs>
<filter id="filter0_d_129_14" x="61" y="296" width="148" height="59" filterUnits="userSpaceOnUse" color-interpolation-filters="sRGB">
<feFlood flood-opacity="0" result="BackgroundImageFix"/>
<feColorMatrix in="SourceAlpha" type="matrix" values="0 0 0 0 0 0 0 0 0 0 0 0 0 0 0 0 0 0 127 0" result="hardAlpha"/>
<feMorphology radius="1" operator="dilate" in="SourceAlpha" result="effect1_dropShadow_129_14"/>
<feOffset dy="5"/>
<feGaussianBlur stdDeviation="1.5"/>
<feComposite in2="hardAlpha" operator="out"/>
<feColorMatrix type="matrix" values="0 0 0 0 0 0 0 0 0 0 0 0 0 0 0 0 0 0 0.25 0"/>
<feBlend mode="normal" in2="BackgroundImageFix" result="effect1_dropShadow_129_14"/>
<feBlend mode="normal" in="SourceGraphic" in2="effect1_dropShadow_129_14" result="shape"/>
</filter>
<filter id="filter1_d_129_14" x="245" y="296" width="148" height="59" filterUnits="userSpaceOnUse" color-interpolation-filters="sRGB">
<feFlood flood-opacity="0" result="BackgroundImageFix"/>
<feColorMatrix in="SourceAlpha" type="matrix" values="0 0 0 0 0 0 0 0 0 0 0 0 0 0 0 0 0 0 127 0" result="hardAlpha"/>
<feMorphology radius="1" operator="dilate" in="SourceAlpha" result="effect1_dropShadow_129_14"/>
<feOffset dy="5"/>
<feGaussianBlur stdDeviation="1.5"/>
<feComposite in2="hardAlpha" operator="out"/>
<feColorMatrix type="matrix" values="0 0 0 0 0 0 0 0 0 0 0 0 0 0 0 0 0 0 0.25 0"/>
<feBlend mode="normal" in2="BackgroundImageFix" result="effect1_dropShadow_129_14"/>
<feBlend mode="normal" in="SourceGraphic" in2="effect1_dropShadow_129_14" result="shape"/>
</filter>
<filter id="filter2_d_129_14" x="153" y="366" width="148" height="59" filterUnits="userSpaceOnUse" color-interpolation-filters="sRGB">
<feFlood flood-opacity="0" result="BackgroundImageFix"/>
<feColorMatrix in="SourceAlpha" type="matrix" values="0 0 0 0 0 0 0 0 0 0 0 0 0 0 0 0 0 0 127 0" result="hardAlpha"/>
<feMorphology radius="1" operator="dilate" in="SourceAlpha" result="effect1_dropShadow_129_14"/>
<feOffset dy="5"/>
<feGaussianBlur stdDeviation="1.5"/>
<feComposite in2="hardAlpha" operator="out"/>
<feColorMatrix type="matrix" values="0 0 0 0 0 0 0 0 0 0 0 0 0 0 0 0 0 0 0.25 0"/>
<feBlend mode="normal" in2="BackgroundImageFix" result="effect1_dropShadow_129_14"/>
<feBlend mode="normal" in="SourceGraphic" in2="effect1_dropShadow_129_14" result="shape"/>
</filter>
<filter id="filter3_d_129_14" x="61" y="105" width="332" height="59" filterUnits="userSpaceOnUse" color-interpolation-filters="sRGB">
<feFlood flood-opacity="0" result="BackgroundImageFix"/>
<feColorMatrix in="SourceAlpha" type="matrix" values="0 0 0 0 0 0 0 0 0 0 0 0 0 0 0 0 0 0 127 0" result="hardAlpha"/>
<feMorphology radius="1" operator="dilate" in="SourceAlpha" result="effect1_dropShadow_129_14"/>
<feOffset dy="5"/>
<feGaussianBlur stdDeviation="1.5"/>
<feComposite in2="hardAlpha" operator="out"/>
<feColorMatrix type="matrix" values="0 0 0 0 0 0 0 0 0 0 0 0 0 0 0 0 0 0 0.25 0"/>
<feBlend mode="normal" in2="BackgroundImageFix" result="effect1_dropShadow_129_14"/>
<feBlend mode="normal" in="SourceGraphic" in2="effect1_dropShadow_129_14" result="shape"/>
</filter>
<filter id="filter4_d_129_14" x="61" y="178" width="332" height="59" filterUnits="userSpaceOnUse" color-interpolation-filters="sRGB">
<feFlood flood-opacity="0" result="BackgroundImageFix"/>
<feColorMatrix in="SourceAlpha" type="matrix" values="0 0 0 0 0 0 0 0 0 0 0 0 0 0 0 0 0 0 127 0" result="hardAlpha"/>
<feMorphology radius="1" operator="dilate" in="SourceAlpha" result="effect1_dropShadow_129_14"/>
<feOffset dy="5"/>
<feGaussianBlur stdDeviation="1.5"/>
<feComposite in2="hardAlpha" operator="out"/>
<feColorMatrix type="matrix" values="0 0 0 0 0 0 0 0 0 0 0 0 0 0 0 0 0 0 0.25 0"/>
<feBlend mode="normal" in2="BackgroundImageFix" result="effect1_dropShadow_129_14"/>
<feBlend mode="normal" in="SourceGraphic" in2="effect1_dropShadow_129_14" result="shape"/>
</filter>
<filter id="filter5_i_129_14" x="72" y="253" width="18" height="22" filterUnits="userSpaceOnUse" color-interpolation-filters="sRGB">
<feFlood flood-opacity="0" result="BackgroundImageFix"/>
<feBlend mode="normal" in="SourceGraphic" in2="BackgroundImageFix" result="shape"/>
<feColorMatrix in="SourceAlpha" type="matrix" values="0 0 0 0 0 0 0 0 0 0 0 0 0 0 0 0 0 0 127 0" result="hardAlpha"/>
<feOffset dy="4"/>
<feGaussianBlur stdDeviation="2"/>
<feComposite in2="hardAlpha" operator="arithmetic" k2="-1" k3="1"/>
<feColorMatrix type="matrix" values="0 0 0 0 0 0 0 0 0 0 0 0 0 0 0 0 0 0 0.25 0"/>
<feBlend mode="normal" in2="shape" result="effect1_innerShadow_129_14"/>
</filter>
</defs>
</svg>
