<svg width="1200" height="720" viewBox="0 0 1200 720" fill="none" xmlns="http://www.w3.org/2000/svg">
<g clip-path="url(#clip0_1_3)">
<rect width="1200" height="720" fill="#2B2B2B"/>
<path d="M1200 720H0V0H1200V720ZM67 44C53.1929 44 42 55.1929 42 69V589C42 602.807 53.1929 614 67 614H719C732.807 614 744 602.807 744 589V69C744 55.1929 732.807 44 719 44H67Z" fill="#2B2B2B"/>
<path d="M112 102C112 88.1929 123.193 77 137 77H627C640.807 77 652 88.1929 652 102V127H137C123.193 127 112 115.807 112 102Z" fill="url(#paint0_linear_1_3)"/>
<path d="M39 203C39 189.193 50.1929 178 64 178H559C572.807 178 584 189.193 584 203V384C584 397.807 572.807 409 559 409H39V203Z" fill="#4E4E4E"/>
<g filter="url(#filter0_dd_1_3)">
<circle cx="974" cy="314" r="130" fill="url(#paint1_linear_1_3)"/>
</g>
<rect x="19" y="632" width="1172" height="80" rx="10" fill="#3D3D3D"/>
<rect x="300.5" y="644.5" width="599" height="54" rx="19.5" fill="#353535" stroke="#585858"/>
<path fill-rule="evenodd" clip-rule="evenodd" d="M46.1775 671.608C47.415 671.608 49.005 671.439 50.5013 671.503C51.9753 671.526 53.4332 671.813 54.8063 672.35C56.1947 672.932 57.5362 673.621 58.8188 674.409C59.1638 674.604 59.5125 674.784 59.8688 674.99C60.225 675.196 60.5925 675.365 60.9713 675.556C61.7445 675.934 62.5487 676.243 63.375 676.483C64.2503 676.722 65.1527 676.848 66.06 676.858C67.0274 676.87 67.9925 676.76 68.9325 676.531C70.8451 676.07 72.6432 675.223 74.2163 674.041C74.415 673.891 74.5913 673.741 74.7825 673.588C74.8613 673.145 74.9175 672.699 74.955 672.245C74.73 672.343 74.4825 672.444 74.205 672.538C72.632 673.11 70.9948 673.488 69.33 673.663C68.4692 673.751 67.6032 673.776 66.7388 673.738C65.912 673.7 65.0894 673.597 64.2788 673.43C63.5014 673.27 62.7388 673.046 61.9988 672.759C61.6238 672.616 61.275 672.463 60.9225 672.305C60.57 672.148 60.2213 671.975 59.8763 671.806C58.5397 671.077 57.1243 670.502 55.6575 670.093C54.0919 669.741 52.4748 669.681 50.8875 669.916C48.6188 670.25 46.2488 671 45 671.12C45 671.259 45 671.401 45 671.54C45.39 671.595 45.7838 671.617 46.1775 671.608Z" fill="white"/>
<path fill-rule="evenodd" clip-rule="evenodd" d="M56.5313 667.91C58.0118 668.45 59.42 669.17 60.7238 670.055L61.6988 670.67C62.025 670.876 62.3475 671.075 62.6813 671.263C63.3358 671.652 64.0235 671.984 64.7363 672.253C65.4762 672.519 66.2502 672.678 67.035 672.725C67.8719 672.776 68.7118 672.724 69.5363 672.571C71.1551 672.256 72.7354 671.769 74.25 671.116L75 670.801C75 670.426 74.9738 670.051 74.94 669.676C74.7375 669.646 74.5125 669.62 74.28 669.601C73.0913 669.515 71.61 669.564 70.1813 669.481C69.465 669.444 68.7488 669.38 68.0438 669.286C67.3388 669.193 66.6375 669.076 65.94 668.911C65.2353 668.76 64.5413 668.562 63.8625 668.319C63.5225 668.194 63.1775 668.063 62.8275 667.925L61.7813 667.475C60.31 666.783 58.7687 666.251 57.1838 665.889C55.3888 665.542 53.5436 665.546 51.75 665.9C49.3562 666.355 47.1 667.358 45.1575 668.829C45.1388 668.96 45.12 669.091 45.105 669.204C47.0776 668.145 49.2483 667.507 51.48 667.329C53.1859 667.166 54.9069 667.364 56.5313 667.91Z" fill="white"/>
<path fill-rule="evenodd" clip-rule="evenodd" d="M60 686C62.1814 686.003 64.337 685.528 66.3159 684.61C68.2948 683.693 70.0492 682.353 71.4563 680.686C70.7216 681.094 69.9539 681.439 69.1613 681.718C68.2681 682.025 67.3562 682.276 66.4313 682.468C65.535 682.663 64.665 682.816 63.8063 682.955C62.9475 683.094 62.0963 683.21 61.2375 683.278C60.8063 683.304 60.3713 683.323 59.9363 683.33C59.5013 683.338 59.055 683.308 58.6125 683.278C56.829 683.133 55.0751 682.735 53.4038 682.096C51.8637 681.52 50.3851 680.792 48.99 679.921C48.3413 679.516 47.7263 679.138 47.1525 678.729C48.4853 680.946 50.3687 682.78 52.6198 684.054C54.871 685.328 57.4133 685.999 60 686Z" fill="white"/>
<path fill-rule="evenodd" clip-rule="evenodd" d="M53.5238 678.159C55.0278 678.893 56.5729 679.541 58.1513 680.098C58.5638 680.24 58.9838 680.375 59.4075 680.499C59.8313 680.623 60.2663 680.75 60.705 680.874C61.5834 681.087 62.4755 681.239 63.375 681.328C64.2966 681.413 65.2248 681.395 66.1425 681.275C67.1198 681.147 68.0788 680.906 69 680.555C70.5694 679.956 72.0196 679.083 73.2825 677.975C73.7138 677.155 74.0679 676.296 74.34 675.41L74.25 675.5C72.6329 676.594 70.7986 677.326 68.8725 677.645C67.9113 677.813 66.9381 677.902 65.9625 677.911C65.0337 677.92 64.1053 677.866 63.1838 677.75C62.3243 677.647 61.4724 677.488 60.6338 677.274C60.2288 677.169 59.8313 677.053 59.4413 676.936C59.0513 676.82 58.6913 676.685 58.3163 676.561C56.8163 676.033 55.425 675.504 54.0338 675.133C52.6618 674.792 51.2605 674.582 49.8488 674.506C48.465 674.401 47.0513 674.424 45.9113 674.094C45.6964 674.034 45.4869 673.956 45.285 673.861C45.3338 674.105 45.3863 674.345 45.4425 674.585C45.5663 674.671 45.6975 674.754 45.8175 674.833C46.905 675.47 48.2138 675.826 49.4888 676.359C50.7638 676.891 52.095 677.454 53.5238 678.159Z" fill="white"/>
<path fill-rule="evenodd" clip-rule="evenodd" d="M46.8188 665.518C48.3581 664.407 50.1397 663.678 52.0163 663.391C53.8561 663.089 55.7379 663.156 57.5513 663.59C59.1987 663.986 60.7936 664.575 62.3025 665.345L63.375 665.881L64.395 666.425C65.0625 666.8 65.7188 667.119 66.3713 667.411C67.0139 667.691 67.6855 667.898 68.3738 668.03C69.0581 668.152 69.7525 668.209 70.4475 668.199C71.8388 668.199 73.2488 668.011 74.3513 668.113C74.49 668.113 74.6213 668.143 74.7488 668.165C74.637 667.583 74.4905 667.008 74.31 666.444C73.2744 665.717 72.1822 665.075 71.0438 664.524C70.4288 664.209 69.795 663.894 69.1275 663.613C68.4471 663.321 67.7495 663.07 67.0388 662.863C66.3188 662.664 65.5725 662.488 64.7888 662.296C64.4063 662.206 64.02 662.12 63.63 662.038C63.255 661.948 62.8425 661.861 62.445 661.783C60.8019 661.429 59.13 661.227 57.45 661.179C55.6108 661.145 53.7776 661.398 52.0163 661.929C50.1114 662.516 48.357 663.51 46.875 664.843C46.5285 665.163 46.2052 665.508 45.9075 665.874C45.825 666.103 45.7463 666.335 45.675 666.568C46.0185 666.179 46.4019 665.827 46.8188 665.518Z" fill="white"/>
<path fill-rule="evenodd" clip-rule="evenodd" d="M61.9837 658.591C62.43 658.7 62.8762 658.828 63.315 658.966C63.7537 659.105 64.1887 659.289 64.6162 659.469C65.4563 659.837 66.2739 660.254 67.065 660.718C67.8375 661.153 68.565 661.576 69.2475 661.951C69.93 662.326 70.5825 662.664 71.2012 662.975C71.9512 663.35 72.6825 663.725 73.3387 664.126C72.251 662.016 70.678 660.195 68.7491 658.811C66.8201 657.428 64.5904 656.522 62.2431 656.168C59.8958 655.814 57.498 656.022 55.2468 656.775C52.9956 657.528 50.9554 658.805 49.2937 660.5C50.0443 659.999 50.8433 659.574 51.6787 659.233C53.2831 658.585 54.9864 658.216 56.715 658.141C58.4838 658.033 60.2589 658.185 61.9837 658.591Z" fill="white"/>
<path d="M133 663.319C133 662.927 133.262 662.578 133.637 662.578H136.75V662.186C136.75 660.44 137.988 659 139.488 659C140.988 659 142.226 660.44 142.226 662.186V662.578H162.326C162.663 662.578 162.964 662.927 162.964 663.319C162.964 663.711 162.701 664.061 162.326 664.061L142.226 664.062V664.454C142.226 666.2 140.988 667.64 139.488 667.64C137.988 667.64 136.75 666.2 136.75 664.454V664.062H133.637C133.3 664.062 133 663.756 133 663.319ZM133.637 671.741H149.238V672.133C149.238 673.879 150.476 675.319 151.976 675.319C153.476 675.319 154.714 673.879 154.714 672.133V671.741H162.363C162.738 671.741 163 671.392 163 671C163 670.608 162.7 670.259 162.363 670.259H154.712V669.866C154.712 668.121 153.474 666.681 151.974 666.681C150.474 666.681 149.236 668.121 149.236 669.866V670.259H133.637C133.262 670.259 133 670.608 133 671C133 671.436 133.3 671.741 133.637 671.741ZM162.363 677.895H142.226V677.546C142.226 675.8 140.988 674.36 139.488 674.36C137.988 674.36 136.75 675.8 136.75 677.546V677.938H133.637C133.262 677.938 133 678.287 133 678.679C133 679.115 133.301 679.42 133.637 679.42L136.75 679.422V679.814C136.75 681.56 137.988 683 139.488 683C140.988 683 142.226 681.56 142.226 679.814V679.422H162.327C162.702 679.422 162.964 679.073 162.964 678.681C163 678.244 162.7 677.895 162.363 677.895Z" fill="white"/>
<path d="M963.992 657C961.414 656.999 958.878 657.664 956.632 658.93C954.385 660.196 952.503 662.021 951.168 664.228C949.832 666.435 949.089 668.95 949.009 671.529C948.93 674.107 949.517 676.663 950.713 678.948L949.032 685.669C948.992 685.827 948.99 685.992 949.023 686.151C949.057 686.31 949.127 686.46 949.227 686.588C949.327 686.716 949.455 686.82 949.601 686.891C949.747 686.963 949.908 687 950.071 687C950.158 687 950.246 686.989 950.331 686.968L957.047 685.286C959.062 686.342 961.29 686.926 963.564 686.993C965.837 687.061 968.096 686.61 970.17 685.674C972.243 684.739 974.077 683.344 975.532 681.595C976.987 679.846 978.025 677.788 978.567 675.578C979.11 673.368 979.143 671.064 978.663 668.839C978.184 666.615 977.205 664.529 975.801 662.739C974.397 660.949 972.604 659.502 970.558 658.507C968.512 657.513 966.267 656.998 963.992 657ZM963.992 684.857C961.794 684.855 959.633 684.29 957.716 683.214C957.556 683.124 957.375 683.077 957.192 683.076C957.104 683.076 957.017 683.087 956.932 683.109L951.543 684.456L952.89 679.064C952.956 678.799 952.917 678.519 952.783 678.281C951.405 675.817 950.875 672.968 951.276 670.174C951.677 667.379 952.986 664.794 955.001 662.818C957.016 660.842 959.625 659.584 962.426 659.239C965.226 658.894 968.063 659.481 970.497 660.909C972.931 662.337 974.828 664.527 975.894 667.141C976.96 669.755 977.137 672.647 976.397 675.372C975.657 678.096 974.042 680.501 971.8 682.215C969.558 683.93 966.814 684.858 963.992 684.857Z" fill="white"/>
<path d="M970.418 667.714H968.04L967.441 665.314C967.383 665.082 967.25 664.876 967.061 664.728C966.873 664.58 966.641 664.5 966.402 664.5H961.583C961.344 664.5 961.111 664.58 960.923 664.728C960.735 664.876 960.601 665.082 960.544 665.314L959.944 667.714H957.567C957.283 667.714 957.011 667.827 956.81 668.028C956.609 668.229 956.496 668.502 956.496 668.786C956.496 669.07 956.609 669.342 956.81 669.543C957.011 669.744 957.283 669.857 957.567 669.857H957.706L958.916 678.579C958.952 678.834 959.08 679.068 959.274 679.237C959.469 679.407 959.718 679.5 959.976 679.5H968.008C968.266 679.5 968.516 679.407 968.71 679.237C968.905 679.068 969.032 678.834 969.068 678.579L970.278 669.857H970.418C970.702 669.857 970.974 669.744 971.175 669.543C971.376 669.342 971.489 669.07 971.489 668.786C971.489 668.502 971.376 668.229 971.175 668.028C970.974 667.827 970.702 667.714 970.418 667.714ZM962.418 666.643H965.567L965.834 667.714H962.15L962.418 666.643Z" fill="white"/>
<path d="M1052 657C1048.52 657 1045.68 659.837 1045.68 663.316V672.789C1045.68 676.268 1048.52 679.105 1052 679.105C1055.48 679.105 1058.32 676.268 1058.32 672.789V663.316C1058.32 659.837 1055.48 657 1052 657ZM1052 659.368C1054.21 659.368 1055.95 661.108 1055.95 663.316V672.789C1055.95 674.997 1054.21 676.737 1052 676.737C1049.79 676.737 1048.05 674.997 1048.05 672.789V663.316C1048.05 661.108 1049.79 659.368 1052 659.368ZM1043.33 668.447C1042.7 668.441 1042.12 669.024 1042.13 669.656V672.814C1042.13 677.861 1045.93 682.024 1050.82 682.609V684.632H1048.05C1047.4 684.632 1046.87 685.162 1046.87 685.816C1046.87 686.47 1047.4 687 1048.05 687H1055.95C1056.6 687 1057.13 686.47 1057.13 685.816C1057.13 685.162 1056.6 684.639 1055.95 684.632H1053.18V682.609C1058.07 682.024 1061.87 677.861 1061.87 672.814V669.656C1061.88 669.031 1061.31 668.455 1060.68 668.455C1060.06 668.455 1059.49 669.031 1059.5 669.656V672.814C1059.5 676.99 1056.18 680.314 1052 680.314C1047.82 680.314 1044.5 676.99 1044.5 672.814V669.656C1044.51 669.032 1043.95 668.454 1043.33 668.447Z" fill="white"/>
<path d="M1152.21 658.294C1151.93 658.012 1151.5 657.924 1151.13 658.07L1123.13 669.069C1122.76 669.218 1122.5 669.582 1122.5 669.99C1122.5 670.397 1122.74 670.766 1123.12 670.923L1130.25 673.894L1128.53 680.758C1128.45 681.099 1128.55 681.459 1128.79 681.707C1128.98 681.896 1129.24 682 1129.5 682C1129.58 682 1129.66 681.99 1129.74 681.97L1136.61 680.254L1139.58 687.385C1139.73 687.758 1140.1 688 1140.5 688C1140.5 688 1140.51 688 1140.51 688C1140.92 687.996 1141.28 687.745 1141.43 687.365L1152.43 659.366C1152.58 658.996 1152.49 658.575 1152.21 658.294ZM1147.4 661.686L1135.27 673.82L1126.17 670.028L1147.4 661.686ZM1130.88 679.626L1132.11 674.672L1134.74 675.765L1135.83 678.388L1130.88 679.626ZM1140.47 684.335L1136.68 675.234L1148.82 663.099L1140.47 684.335Z" fill="white"/>
<path d="M135.391 395.351C138.735 395.351 141.852 393.627 143.527 390.852C143.744 390.493 143.616 390.034 143.242 389.827C142.867 389.619 142.388 389.742 142.172 390.101C140.776 392.414 138.178 393.851 135.391 393.851C131.076 393.851 127.565 390.487 127.565 386.351C127.565 382.216 131.076 378.851 135.391 378.851C137.862 378.851 140.182 379.983 141.651 381.851H138.913C138.481 381.851 138.13 382.187 138.13 382.601C138.13 383.015 138.481 383.351 138.913 383.351H143.217C143.649 383.351 144 383.015 144 382.601V378.476C144 378.062 143.649 377.726 143.217 377.726C142.785 377.726 142.435 378.062 142.435 378.476V380.399C140.669 378.487 138.105 377.351 135.391 377.351C130.213 377.351 126 381.389 126 386.351C126 391.314 130.213 395.351 135.391 395.351Z" fill="white"/>
<path d="M77.5612 383.486C77.3438 383.226 77.0711 383.018 76.763 382.876C76.455 382.735 76.1192 382.664 75.7804 382.669H72.8875C72.8612 382.669 72.8361 382.659 72.8176 382.64C72.799 382.622 72.7886 382.597 72.7886 382.571V379.537C72.7901 379.224 72.7242 378.915 72.5955 378.63C72.4667 378.346 72.2781 378.092 72.0425 377.887C71.8069 377.681 71.5298 377.529 71.2301 377.44C70.9304 377.352 70.6151 377.329 70.3058 377.373C69.2379 377.545 68.8556 378.363 68.5496 379.021C68.5115 379.102 68.4734 379.184 68.4337 379.265C68.0531 380.042 67.6146 380.789 67.1218 381.501C66.7755 382.06 66.224 382.461 65.5857 382.618C65.4589 382.368 65.2658 382.158 65.0275 382.011C64.7892 381.864 64.515 381.786 64.235 381.785H61.5255C61.121 381.785 60.7333 381.946 60.4473 382.232C60.1614 382.518 60.0005 382.906 60 383.31V393.177C60.0005 393.581 60.1614 393.969 60.4473 394.255C60.7333 394.541 61.121 394.702 61.5255 394.702H64.2347C64.5251 394.702 64.8093 394.618 65.0538 394.461C65.2983 394.304 65.493 394.081 65.6149 393.818H74.3406C76.3338 393.818 76.6514 391.8 76.8424 390.594C76.8644 390.455 76.8854 390.321 76.9077 390.195C77.1036 389.097 77.3443 387.978 77.5768 386.898C77.7079 386.288 77.8391 385.679 77.9636 385.07C78.0187 384.792 78.0112 384.506 77.9415 384.232C77.8719 383.958 77.742 383.703 77.5612 383.486ZM64.235 393.482H61.5255C61.4446 393.482 61.367 393.45 61.3097 393.393C61.2525 393.335 61.2204 393.258 61.2204 393.177V383.31C61.2204 383.229 61.2525 383.152 61.3097 383.094C61.367 383.037 61.4446 383.005 61.5255 383.005H64.2347C64.2787 383.005 64.322 383.015 64.3617 383.034C64.4013 383.053 64.4362 383.081 64.4638 383.115C64.5676 383.242 64.5398 383.509 64.5398 383.675V393.062C64.5401 393.259 64.4721 393.482 64.235 393.482ZM76.767 384.825C76.645 385.43 76.5135 386.035 76.3832 386.64C76.1483 387.731 75.9054 388.859 75.7056 389.98C75.6818 390.113 75.6595 390.255 75.6364 390.403C75.3978 391.92 75.154 392.596 74.3412 392.596H65.7605V383.826C66.2439 383.727 66.7023 383.531 67.1088 383.251C67.5152 382.971 67.8614 382.612 68.1268 382.196C68.6539 381.434 69.123 380.633 69.5302 379.801C69.5732 379.713 69.6147 379.624 69.6556 379.536C69.95 378.904 70.109 378.641 70.4998 378.578C70.7188 378.553 70.9398 378.603 71.1265 378.72C71.2649 378.806 71.3784 378.926 71.4559 379.07C71.5334 379.213 71.5721 379.374 71.5682 379.537V382.571C71.5688 382.921 71.708 383.256 71.9553 383.503C72.2026 383.75 72.5378 383.889 72.8875 383.89H75.7804C75.9379 383.886 76.0943 383.917 76.2387 383.98C76.383 384.043 76.5117 384.138 76.6157 384.256C76.6826 384.333 76.7311 384.424 76.7573 384.523C76.7835 384.621 76.7868 384.725 76.767 384.825Z" fill="white"/>
<path d="M93.4388 388.216C93.6562 388.476 93.9289 388.685 94.237 388.826C94.545 388.967 94.8808 389.038 95.2196 389.033H98.1125C98.1388 389.033 98.1639 389.043 98.1824 389.062C98.201 389.08 98.2114 389.106 98.2114 389.132V392.166C98.2099 392.478 98.2758 392.787 98.4045 393.072C98.5333 393.357 98.7219 393.61 98.9575 393.816C99.1931 394.021 99.4702 394.173 99.7699 394.262C100.07 394.351 100.385 394.373 100.694 394.329C101.762 394.157 102.144 393.339 102.45 392.682C102.488 392.601 102.527 392.519 102.566 392.438C102.947 391.66 103.385 390.913 103.878 390.201C104.225 389.643 104.776 389.242 105.414 389.084C105.541 389.334 105.734 389.544 105.972 389.691C106.211 389.838 106.485 389.916 106.765 389.918H109.475C109.879 389.917 110.267 389.756 110.553 389.47C110.839 389.184 111 388.797 111 388.392V378.525C111 378.121 110.839 377.733 110.553 377.447C110.267 377.161 109.879 377 109.475 377H106.765C106.475 377.001 106.191 377.084 105.946 377.241C105.702 377.398 105.507 377.621 105.385 377.885H96.6594C94.6662 377.885 94.3486 379.902 94.1576 381.108C94.1356 381.247 94.1146 381.381 94.0923 381.507C93.8964 382.605 93.6557 383.724 93.4232 384.805C93.2921 385.415 93.1609 386.023 93.0364 386.633C92.9813 386.91 92.9888 387.196 93.0585 387.47C93.1281 387.744 93.258 387.999 93.4388 388.216ZM106.765 378.22H109.475C109.555 378.22 109.633 378.253 109.69 378.31C109.747 378.367 109.78 378.445 109.78 378.525V388.392C109.78 388.473 109.747 388.551 109.69 388.608C109.633 388.665 109.555 388.697 109.475 388.697H106.765C106.721 388.697 106.678 388.687 106.638 388.668C106.599 388.649 106.564 388.621 106.536 388.587C106.432 388.46 106.46 388.193 106.46 388.027V378.641C106.46 378.444 106.528 378.22 106.765 378.22ZM94.233 386.878C94.355 386.272 94.4865 385.667 94.6168 385.063C94.8517 383.971 95.0946 382.843 95.2944 381.722C95.3182 381.589 95.3405 381.447 95.3636 381.299C95.6022 379.783 95.846 379.106 96.6588 379.106H105.24V387.876C104.756 387.976 104.298 388.171 103.891 388.451C103.485 388.732 103.139 389.09 102.873 389.506C102.346 390.268 101.877 391.069 101.47 391.901C101.427 391.989 101.385 392.078 101.344 392.167C101.05 392.798 100.891 393.061 100.5 393.124C100.281 393.15 100.06 393.099 99.8735 392.982C99.7351 392.896 99.6216 392.776 99.5441 392.633C99.4666 392.489 99.4279 392.328 99.4318 392.166V389.131C99.4312 388.781 99.292 388.446 99.0447 388.199C98.7974 387.952 98.4622 387.813 98.1125 387.813H95.2196C95.0621 387.816 94.9057 387.785 94.7613 387.722C94.617 387.659 94.4883 387.565 94.3843 387.446C94.3174 387.369 94.2689 387.278 94.2427 387.18C94.2165 387.081 94.2132 386.978 94.233 386.878Z" fill="white"/>
<path fill-rule="evenodd" clip-rule="evenodd" d="M172.406 389.968C172.898 389.968 173.299 390.371 173.299 390.869C173.299 391.367 172.898 391.77 172.406 391.77H161.679C160.968 391.77 160.287 391.486 159.784 390.979C159.282 390.472 159 389.785 159 389.069V380.051C159 379.336 159.282 378.649 159.784 378.142C160.287 377.635 160.968 377.351 161.679 377.351H177.77C178.481 377.351 179.162 377.635 179.665 378.142C180.167 378.649 180.449 379.336 180.449 380.051V383.66C180.449 384.157 180.049 384.561 179.555 384.561C179.061 384.561 178.662 384.157 178.662 383.66V380.051C178.662 379.814 178.568 379.585 178.401 379.416C178.234 379.248 178.007 379.154 177.77 379.154H161.679C161.442 379.154 161.215 379.248 161.049 379.416C160.881 379.585 160.787 379.814 160.787 380.051V389.069C160.787 389.308 160.881 389.536 161.049 389.704C161.215 389.873 161.442 389.968 161.679 389.968L172.406 389.968ZM175.832 382.758C175.832 382.426 176.098 382.158 176.427 382.158C176.756 382.158 177.024 382.426 177.024 382.758V386.363C177.024 386.695 176.756 386.964 176.427 386.964C176.098 386.964 175.832 386.695 175.832 386.363V382.758ZM170.469 382.758C170.469 382.426 170.735 382.158 171.065 382.158C171.393 382.158 171.661 382.426 171.661 382.758V386.363C171.661 386.695 171.393 386.964 171.065 386.964C170.735 386.964 170.469 386.695 170.469 386.363V382.758ZM165.107 382.758C165.107 382.426 165.374 382.158 165.703 382.158C166.031 382.158 166.299 382.426 166.299 382.758V386.363C166.299 386.695 166.031 386.964 165.703 386.964C165.374 386.964 165.107 386.695 165.107 386.363V382.758ZM173.149 380.956C173.149 380.625 173.418 380.355 173.746 380.355C174.076 380.355 174.341 380.625 174.341 380.956V388.165C174.341 388.497 174.076 388.767 173.746 388.767C173.418 388.767 173.149 388.497 173.149 388.165V380.956ZM167.787 380.956C167.787 380.625 168.055 380.355 168.384 380.355C168.713 380.355 168.979 380.625 168.979 380.956V388.165C168.979 388.497 168.713 388.767 168.384 388.767C168.055 388.767 167.787 388.497 167.787 388.165V380.956ZM162.425 380.956C162.425 380.625 162.693 380.355 163.022 380.355C163.351 380.355 163.617 380.625 163.617 380.956V388.165C163.617 388.497 163.351 388.767 163.022 388.767C162.693 388.767 162.425 388.497 162.425 388.165V380.956ZM180.105 386.755C180.105 386.755 180.556 387.84 180.939 388.604C181.068 388.862 181.174 389.081 181.251 389.159C181.328 389.237 181.546 389.343 181.8 389.473C182.559 389.86 183.635 390.315 183.635 390.315C183.856 390.409 184 390.627 184 390.869C184 391.111 183.856 391.329 183.635 391.423C183.635 391.423 182.559 391.878 181.8 392.265C181.546 392.394 181.328 392.501 181.252 392.578C181.174 392.656 181.069 392.876 180.939 393.133C180.557 393.897 180.105 394.983 180.105 394.983C180.012 395.206 179.795 395.351 179.555 395.351C179.315 395.351 179.098 395.206 179.005 394.983C179.005 394.983 178.554 393.898 178.171 393.134C178.042 392.876 177.936 392.657 177.86 392.579C177.782 392.501 177.565 392.395 177.309 392.265C176.551 391.878 175.475 391.423 175.475 391.423C175.255 391.329 175.11 391.111 175.11 390.869C175.11 390.627 175.255 390.409 175.475 390.315C175.475 390.315 176.551 389.86 177.309 389.473C177.565 389.343 177.782 389.237 177.86 389.159C177.936 389.081 178.042 388.862 178.171 388.604C178.554 387.84 179.005 386.755 179.005 386.755C179.098 386.532 179.315 386.387 179.555 386.387C179.795 386.387 180.012 386.532 180.105 386.755Z" fill="white"/>
<path d="M236 665.428C234.729 665.428 233.486 665.806 232.428 666.512C231.371 667.218 230.547 668.222 230.061 669.397C229.574 670.572 229.447 671.864 229.695 673.111C229.943 674.358 230.555 675.504 231.454 676.403C232.353 677.302 233.499 677.914 234.746 678.162C235.993 678.41 237.285 678.283 238.46 677.796C239.635 677.31 240.639 676.486 241.345 675.429C242.052 674.371 242.429 673.128 242.429 671.857C242.429 670.152 241.751 668.517 240.546 667.311C239.34 666.106 237.705 665.428 236 665.428ZM236 676.143C235.152 676.143 234.324 675.891 233.619 675.42C232.914 674.95 232.365 674.28 232.041 673.497C231.716 672.714 231.631 671.852 231.797 671.021C231.962 670.19 232.37 669.426 232.97 668.827C233.569 668.227 234.333 667.819 235.164 667.654C235.995 667.488 236.857 667.573 237.64 667.898C238.423 668.222 239.093 668.771 239.563 669.476C240.034 670.181 240.286 671.009 240.286 671.857C240.286 672.994 239.834 674.084 239.03 674.888C238.227 675.691 237.137 676.143 236 676.143ZM237.832 672.168C237.933 672.267 238.012 672.386 238.067 672.516C238.121 672.647 238.149 672.787 238.149 672.928C238.149 673.07 238.121 673.21 238.067 673.341C238.012 673.471 237.933 673.59 237.832 673.689C237.733 673.79 237.614 673.869 237.483 673.924C237.353 673.978 237.213 674.006 237.071 674.006C236.93 674.006 236.79 673.978 236.659 673.924C236.529 673.869 236.41 673.79 236.311 673.689L235.239 672.618C235.14 672.518 235.061 672.399 235.008 672.268C234.955 672.138 234.928 671.998 234.929 671.857V669.714C234.929 669.43 235.041 669.158 235.242 668.957C235.443 668.756 235.716 668.643 236 668.643C236.284 668.643 236.557 668.756 236.758 668.957C236.959 669.158 237.071 669.43 237.071 669.714V671.418L237.832 672.168ZM247.786 661.143H224.214C223.362 661.143 222.544 661.481 221.941 662.084C221.339 662.687 221 663.505 221 664.357V679.357C221 680.21 221.339 681.027 221.941 681.63C222.544 682.233 223.362 682.571 224.214 682.571H239.911L244.979 686.621C245.167 686.773 245.401 686.856 245.643 686.857C245.803 686.86 245.961 686.823 246.104 686.75C246.286 686.663 246.44 686.526 246.548 686.356C246.656 686.185 246.714 685.988 246.714 685.786V682.571H247.786C248.638 682.571 249.456 682.233 250.059 681.63C250.661 681.027 251 680.21 251 679.357V664.357C251 663.505 250.661 662.687 250.059 662.084C249.456 661.481 248.638 661.143 247.786 661.143ZM248.857 679.357C248.857 679.641 248.744 679.914 248.543 680.115C248.342 680.316 248.07 680.428 247.786 680.428H245.643C245.359 680.428 245.086 680.541 244.885 680.742C244.684 680.943 244.571 681.216 244.571 681.5V683.557L240.95 680.664C240.761 680.513 240.527 680.43 240.286 680.428H224.214C223.93 680.428 223.658 680.316 223.457 680.115C223.256 679.914 223.143 679.641 223.143 679.357V664.357C223.143 664.073 223.256 663.8 223.457 663.599C223.658 663.399 223.93 663.286 224.214 663.286H247.786C248.07 663.286 248.342 663.399 248.543 663.599C248.744 663.8 248.857 664.073 248.857 664.357V679.357Z" fill="white"/>
</g>
<defs>
<filter id="filter0_dd_1_3" x="837.5" y="184" width="273" height="275.5" filterUnits="userSpaceOnUse" color-interpolation-filters="sRGB">
<feFlood flood-opacity="0" result="BackgroundImageFix"/>
<feColorMatrix in="SourceAlpha" type="matrix" values="0 0 0 0 0 0 0 0 0 0 0 0 0 0 0 0 0 0 127 0" result="hardAlpha"/>
<feMorphology radius="1" operator="dilate" in="SourceAlpha" result="effect1_dropShadow_1_3"/>
<feOffset dy="9"/>
<feGaussianBlur stdDeviation="2.75"/>
<feComposite in2="hardAlpha" operator="out"/>
<feColorMatrix type="matrix" values="0 0 0 0 0 0 0 0 0 0 0 0 0 0 0 0 0 0 0.25 0"/>
<feBlend mode="normal" in2="BackgroundImageFix" result="effect1_dropShadow_1_3"/>
<feColorMatrix in="SourceAlpha" type="matrix" values="0 0 0 0 0 0 0 0 0 0 0 0 0 0 0 0 0 0 127 0" result="hardAlpha"/>
<feOffset dy="4"/>
<feGaussianBlur stdDeviation="2"/>
<feComposite in2="hardAlpha" operator="out"/>
<feColorMatrix type="matrix" values="0 0 0 0 0 0 0 0 0 0 0 0 0 0 0 0 0 0 0.25 0"/>
<feBlend mode="normal" in2="effect1_dropShadow_1_3" result="effect2_dropShadow_1_3"/>
<feBlend mode="normal" in="SourceGraphic" in2="effect2_dropShadow_1_3" result="shape"/>
</filter>
<linearGradient id="paint0_linear_1_3" x1="112" y1="102" x2="652" y2="102" gradientUnits="userSpaceOnUse">
<stop stop-color="#5BB5FF"/>
<stop offset="1" stop-color="#2833FF"/>
</linearGradient>
<linearGradient id="paint1_linear_1_3" x1="974" y1="184" x2="974" y2="444" gradientUnits="userSpaceOnUse">
<stop stop-color="#00C8F5"/>
<stop offset="1" stop-color="#8800FF"/>
</linearGradient>
<clipPath id="clip0_1_3">
<rect width="1200" height="720" fill="white"/>
</clipPath>
</defs>
</svg>
