<svg width="455" height="455" viewBox="0 0 455 455" fill="none" xmlns="http://www.w3.org/2000/svg">
<rect width="455" height="455" fill="#353535"/>
<g filter="url(#filter0_dd_131_63)">
<circle cx="227" cy="228" r="90" fill="url(#paint0_linear_131_63)"/>
</g>
<path d="M176.08 198.34C176.464 198.34 176.805 198.447 177.104 198.66C177.445 198.873 177.659 199.172 177.744 199.556L192.528 242.5H188.176L175.76 205.252C175.589 204.655 175.397 204.057 175.184 203.46C174.971 202.82 174.779 202.223 174.608 201.668H172.752C172.581 202.223 172.389 202.82 172.176 203.46C172.005 204.057 171.813 204.655 171.6 205.252L159.184 242.5H154.832L169.616 199.556C169.744 199.172 169.957 198.873 170.256 198.66C170.555 198.447 170.896 198.34 171.28 198.34H176.08ZM184.848 224.196V227.844H162.448V224.196H184.848ZM201.887 211.46L202.399 217.348L202.783 218.308V242.5H198.751V211.46H201.887ZM217.375 210.692L216.863 214.532H215.327C213.322 214.532 211.338 214.98 209.375 215.876C207.455 216.729 205.13 217.967 202.399 219.588L202.079 216.9C204.468 214.98 206.836 213.465 209.183 212.356C211.53 211.247 213.812 210.692 216.031 210.692H217.375ZM250.561 211.46L238.721 241.476C238.593 241.775 238.401 242.031 238.145 242.244C237.889 242.415 237.569 242.5 237.185 242.5H233.409C233.068 242.5 232.748 242.415 232.449 242.244C232.193 242.031 232.001 241.775 231.873 241.476L220.033 211.46H224.385L232.833 233.924C233.217 234.82 233.558 235.759 233.857 236.74C234.198 237.679 234.54 238.596 234.881 239.492H235.713C236.097 238.553 236.46 237.615 236.801 236.676C237.142 235.737 237.484 234.799 237.825 233.86L246.273 211.46H250.561ZM261.663 211.46V242.5H257.695V211.46H261.663ZM260.639 198.404C261.535 198.404 261.983 198.852 261.983 199.748V203.524C261.983 204.42 261.535 204.868 260.639 204.868H258.719C257.823 204.868 257.375 204.42 257.375 203.524V199.748C257.375 198.852 257.823 198.404 258.719 198.404H260.639ZM282.673 210.692C283.995 210.692 285.382 210.735 286.833 210.82C288.326 210.905 289.798 211.012 291.249 211.14C292.699 211.268 294.065 211.417 295.345 211.588L294.961 214.596C293.041 214.468 291.078 214.383 289.073 214.34C287.067 214.255 285.105 214.212 283.185 214.212C281.137 214.169 279.494 214.233 278.257 214.404C277.062 214.532 276.166 214.959 275.569 215.684C275.014 216.367 274.737 217.519 274.737 219.14C274.737 220.975 275.142 222.233 275.953 222.916C276.763 223.556 277.958 224.025 279.537 224.324L289.073 226.116C291.462 226.585 293.233 227.439 294.385 228.676C295.579 229.913 296.177 231.812 296.177 234.372C296.177 236.975 295.707 238.895 294.769 240.132C293.83 241.369 292.401 242.18 290.481 242.564C288.561 242.991 286.171 243.204 283.312 243.204C282.075 243.204 280.411 243.161 278.321 243.076C276.273 242.991 273.99 242.756 271.473 242.372L271.793 239.428C272.945 239.471 274.097 239.535 275.249 239.62C276.401 239.663 277.574 239.705 278.769 239.748C280.006 239.748 281.286 239.748 282.609 239.748C285.041 239.705 286.961 239.577 288.369 239.364C289.777 239.108 290.779 238.596 291.377 237.828C291.974 237.06 292.273 235.908 292.273 234.372C292.273 232.58 291.782 231.364 290.801 230.724C289.862 230.084 288.646 229.615 287.153 229.316L277.681 227.588C276.102 227.247 274.801 226.756 273.777 226.116C272.753 225.433 271.985 224.537 271.473 223.428C271.003 222.276 270.769 220.847 270.769 219.14C270.769 216.665 271.195 214.831 272.049 213.636C272.902 212.399 274.203 211.588 275.953 211.204C277.702 210.82 279.942 210.649 282.673 210.692Z" fill="white"/>
<defs>
<filter id="filter0_dd_131_63" x="130.5" y="138" width="193" height="195.5" filterUnits="userSpaceOnUse" color-interpolation-filters="sRGB">
<feFlood flood-opacity="0" result="BackgroundImageFix"/>
<feColorMatrix in="SourceAlpha" type="matrix" values="0 0 0 0 0 0 0 0 0 0 0 0 0 0 0 0 0 0 127 0" result="hardAlpha"/>
<feMorphology radius="1" operator="dilate" in="SourceAlpha" result="effect1_dropShadow_131_63"/>
<feOffset dy="9"/>
<feGaussianBlur stdDeviation="2.75"/>
<feComposite in2="hardAlpha" operator="out"/>
<feColorMatrix type="matrix" values="0 0 0 0 0 0 0 0 0 0 0 0 0 0 0 0 0 0 0.25 0"/>
<feBlend mode="normal" in2="BackgroundImageFix" result="effect1_dropShadow_131_63"/>
<feColorMatrix in="SourceAlpha" type="matrix" values="0 0 0 0 0 0 0 0 0 0 0 0 0 0 0 0 0 0 127 0" result="hardAlpha"/>
<feOffset dy="4"/>
<feGaussianBlur stdDeviation="2"/>
<feComposite in2="hardAlpha" operator="out"/>
<feColorMatrix type="matrix" values="0 0 0 0 0 0 0 0 0 0 0 0 0 0 0 0 0 0 0.25 0"/>
<feBlend mode="normal" in2="effect1_dropShadow_131_63" result="effect2_dropShadow_131_63"/>
<feBlend mode="normal" in="SourceGraphic" in2="effect2_dropShadow_131_63" result="shape"/>
</filter>
<linearGradient id="paint0_linear_131_63" x1="227" y1="138" x2="227" y2="318" gradientUnits="userSpaceOnUse">
<stop stop-color="#00C8F5"/>
<stop offset="1" stop-color="#8800FF"/>
</linearGradient>
</defs>
</svg>
