<svg width="48" height="48" viewBox="0 0 48 48" fill="none" xmlns="http://www.w3.org/2000/svg">
<path d="M24.6522 39C30.2243 39 35.4202 36.1262 38.2122 31.5006C38.5728 30.9031 38.3596 30.1388 37.7361 29.7931C37.1113 29.4463 36.3137 29.6506 35.9537 30.2494C33.6267 34.105 29.2963 36.5 24.6522 36.5C17.46 36.5 11.6087 30.8925 11.6087 24C11.6087 17.1075 17.46 11.5 24.6522 11.5C28.77 11.5 32.6374 13.3856 35.0843 16.5H30.5217C29.8017 16.5 29.2174 17.06 29.2174 17.75C29.2174 18.44 29.8017 19 30.5217 19H37.6957C38.4157 19 39 18.44 39 17.75V10.875C39 10.185 38.4157 9.625 37.6957 9.625C36.9757 9.625 36.3913 10.185 36.3913 10.875V14.0794C33.4487 10.8931 29.1743 9 24.6522 9C16.0213 9 9 15.7294 9 24C9 32.2706 16.0213 39 24.6522 39Z" fill="white"/>
</svg>
