<svg width="48" height="48" viewBox="0 0 48 48" fill="none" xmlns="http://www.w3.org/2000/svg">
<g filter="url(#filter0_i_126_14)">
<rect width="48" height="48" rx="20" fill="#353535"/>
<path d="M24 15.4285C22.7285 15.4285 21.4856 15.8056 20.4285 16.5119C19.3713 17.2183 18.5473 18.2223 18.0608 19.397C17.5742 20.5717 17.4469 21.8642 17.695 23.1113C17.943 24.3583 18.5553 25.5037 19.4543 26.4028C20.3534 27.3018 21.4988 27.9141 22.7458 28.1622C23.9929 28.4102 25.2854 28.2829 26.4601 27.7963C27.6348 27.3098 28.6388 26.4858 29.3452 25.4286C30.0515 24.3715 30.4286 23.1286 30.4286 21.8571C30.4286 20.1521 29.7513 18.517 28.5457 17.3114C27.3401 16.1058 25.705 15.4285 24 15.4285ZM24 26.1428C23.1524 26.1428 22.3238 25.8915 21.619 25.4205C20.9142 24.9496 20.3649 24.2803 20.0405 23.4972C19.7161 22.7141 19.6313 21.8524 19.7966 21.021C19.962 20.1897 20.3702 19.426 20.9695 18.8266C21.5689 18.2273 22.3326 17.8191 23.1639 17.6537C23.9952 17.4884 24.857 17.5732 25.6401 17.8976C26.4232 18.222 27.0925 18.7713 27.5634 19.4761C28.0344 20.1809 28.2857 21.0095 28.2857 21.8571C28.2857 22.9937 27.8342 24.0838 27.0305 24.8876C26.2267 25.6913 25.1366 26.1428 24 26.1428ZM25.8321 22.1678C25.9326 22.2674 26.0123 22.3859 26.0667 22.5165C26.1211 22.6471 26.1491 22.7871 26.1491 22.9285C26.1491 23.07 26.1211 23.21 26.0667 23.3406C26.0123 23.4711 25.9326 23.5896 25.8321 23.6893C25.7325 23.7897 25.614 23.8694 25.4835 23.9238C25.3529 23.9782 25.2129 24.0062 25.0714 24.0062C24.93 24.0062 24.7899 23.9782 24.6594 23.9238C24.5288 23.8694 24.4103 23.7897 24.3107 23.6893L23.2393 22.6178C23.14 22.5177 23.0614 22.399 23.0081 22.2684C22.9548 22.1379 22.9278 21.9981 22.9286 21.8571V19.7143C22.9286 19.4301 23.0415 19.1576 23.2424 18.9566C23.4433 18.7557 23.7158 18.6428 24 18.6428C24.2842 18.6428 24.5567 18.7557 24.7576 18.9566C24.9585 19.1576 25.0714 19.4301 25.0714 19.7143V21.4178L25.8321 22.1678ZM35.7857 11.1428H12.2143C11.3618 11.1428 10.5442 11.4815 9.94144 12.0843C9.33865 12.6871 9 13.5046 9 14.3571V29.3571C9 30.2096 9.33865 31.0272 9.94144 31.63C10.5442 32.2327 11.3618 32.5714 12.2143 32.5714H27.9107L32.9786 36.6214C33.1671 36.7726 33.4012 36.8557 33.6429 36.8571C33.8029 36.8598 33.9611 36.823 34.1036 36.75C34.2859 36.6631 34.44 36.5265 34.548 36.3559C34.6561 36.1853 34.7137 35.9876 34.7143 35.7857V32.5714H35.7857C36.6382 32.5714 37.4558 32.2327 38.0586 31.63C38.6614 31.0272 39 30.2096 39 29.3571V14.3571C39 13.5046 38.6614 12.6871 38.0586 12.0843C37.4558 11.4815 36.6382 11.1428 35.7857 11.1428ZM36.8571 29.3571C36.8571 29.6413 36.7443 29.9138 36.5433 30.1147C36.3424 30.3157 36.0699 30.4285 35.7857 30.4285H33.6429C33.3587 30.4285 33.0862 30.5414 32.8852 30.7423C32.6843 30.9433 32.5714 31.2158 32.5714 31.5V33.5571L28.95 30.6642C28.7615 30.513 28.5274 30.4299 28.2857 30.4285H12.2143C11.9301 30.4285 11.6576 30.3157 11.4567 30.1147C11.2557 29.9138 11.1429 29.6413 11.1429 29.3571V14.3571C11.1429 14.0729 11.2557 13.8004 11.4567 13.5995C11.6576 13.3986 11.9301 13.2857 12.2143 13.2857H35.7857C36.0699 13.2857 36.3424 13.3986 36.5433 13.5995C36.7443 13.8004 36.8571 14.0729 36.8571 14.3571V29.3571Z" fill="white"/>
</g>
<defs>
<filter id="filter0_i_126_14" x="0" y="0" width="48" height="52" filterUnits="userSpaceOnUse" color-interpolation-filters="sRGB">
<feFlood flood-opacity="0" result="BackgroundImageFix"/>
<feBlend mode="normal" in="SourceGraphic" in2="BackgroundImageFix" result="shape"/>
<feColorMatrix in="SourceAlpha" type="matrix" values="0 0 0 0 0 0 0 0 0 0 0 0 0 0 0 0 0 0 127 0" result="hardAlpha"/>
<feOffset dy="4"/>
<feGaussianBlur stdDeviation="2"/>
<feComposite in2="hardAlpha" operator="arithmetic" k2="-1" k3="1"/>
<feColorMatrix type="matrix" values="0 0 0 0 0 0 0 0 0 0 0 0 0 0 0 0 0 0 0.25 0"/>
<feBlend mode="normal" in2="shape" result="effect1_innerShadow_126_14"/>
</filter>
</defs>
</svg>
