<svg width="112" height="59" viewBox="0 0 112 59" fill="none" xmlns="http://www.w3.org/2000/svg">
<g filter="url(#filter0_d_37_35)">
<rect x="4.5" y="0.5" width="103" height="49" rx="24.5" stroke="white" shape-rendering="crispEdges"/>
<path d="M27.114 32.27C25.878 32.27 24.762 31.988 23.766 31.424C22.77 30.848 21.984 30.062 21.408 29.066C20.844 28.058 20.562 26.936 20.562 25.7C20.562 24.464 20.844 23.348 21.408 22.352C21.984 21.344 22.77 20.558 23.766 19.994C24.762 19.418 25.878 19.13 27.114 19.13C28.35 19.13 29.466 19.418 30.462 19.994C31.458 20.558 32.238 21.344 32.802 22.352C33.366 23.348 33.648 24.464 33.648 25.7C33.648 26.936 33.366 28.058 32.802 29.066C32.238 30.062 31.458 30.848 30.462 31.424C29.466 31.988 28.35 32.27 27.114 32.27ZM27.114 30.668C28.038 30.668 28.872 30.458 29.616 30.038C30.36 29.606 30.942 29.012 31.362 28.256C31.794 27.488 32.01 26.636 32.01 25.7C32.01 24.764 31.794 23.918 31.362 23.162C30.942 22.394 30.36 21.794 29.616 21.362C28.872 20.93 28.038 20.714 27.114 20.714C26.19 20.714 25.356 20.93 24.612 21.362C23.868 21.794 23.286 22.394 22.866 23.162C22.446 23.918 22.236 24.764 22.236 25.7C22.236 26.636 22.446 27.488 22.866 28.256C23.286 29.012 23.868 29.606 24.612 30.038C25.356 30.458 26.19 30.668 27.114 30.668ZM38.9527 32V24.368H35.2447V23H44.1007V24.368H40.3747V32H38.9527ZM46.3296 32V23H47.9496L51.5316 31.604L55.0956 23H56.6796V32H55.2576V23.684L51.7476 32H51.2796L47.7696 23.684V32H46.3296ZM63.998 32.18C63.11 32.18 62.306 31.976 61.586 31.568C60.866 31.16 60.296 30.608 59.876 29.912C59.468 29.204 59.264 28.412 59.264 27.536C59.264 26.636 59.474 25.832 59.894 25.124C60.314 24.404 60.884 23.84 61.604 23.432C62.324 23.024 63.128 22.82 64.016 22.82C64.892 22.82 65.684 23.024 66.392 23.432C67.112 23.84 67.676 24.404 68.084 25.124C68.504 25.832 68.714 26.624 68.714 27.5C68.714 27.524 68.714 27.554 68.714 27.59C68.714 27.626 68.714 27.656 68.714 27.68H60.668C60.692 28.28 60.854 28.826 61.154 29.318C61.454 29.798 61.85 30.182 62.342 30.47C62.846 30.746 63.404 30.884 64.016 30.884C64.688 30.884 65.282 30.734 65.798 30.434C66.314 30.122 66.668 29.72 66.86 29.228H68.39C68.282 29.756 68.024 30.248 67.616 30.704C67.22 31.148 66.71 31.508 66.086 31.784C65.462 32.048 64.766 32.18 63.998 32.18ZM67.346 27.32C67.322 26.72 67.16 26.18 66.86 25.7C66.56 25.208 66.158 24.824 65.654 24.548C65.162 24.26 64.616 24.116 64.016 24.116C63.416 24.116 62.864 24.26 62.36 24.548C61.868 24.824 61.466 25.208 61.154 25.7C60.854 26.18 60.692 26.72 60.668 27.32H67.346ZM71.185 32V23H72.625V27.32H77.935V23H79.375V32H77.935V27.68H72.625V32H71.185ZM84.7293 32.216C83.8653 32.216 83.1873 32.012 82.6953 31.604C82.2033 31.196 81.9573 30.638 81.9573 29.93C81.9573 29.234 82.1853 28.694 82.6413 28.31C83.1093 27.926 83.6673 27.662 84.3153 27.518C84.9633 27.362 85.7013 27.254 86.5293 27.194C87.2493 27.146 87.8013 27.062 88.1853 26.942C88.5813 26.822 88.7793 26.606 88.7793 26.294C88.7793 25.598 88.5453 25.046 88.0773 24.638C87.6093 24.218 87.0213 24.008 86.3133 24.008C85.5693 24.008 84.9573 24.218 84.4773 24.638C83.9973 25.046 83.7033 25.616 83.5953 26.348H82.2453C82.3173 25.616 82.5333 24.986 82.8933 24.458C83.2653 23.918 83.7453 23.51 84.3333 23.234C84.9333 22.958 85.5993 22.82 86.3313 22.82C87.0753 22.82 87.7293 22.964 88.2933 23.252C88.8693 23.54 89.3133 23.96 89.6253 24.512C89.9493 25.064 90.1113 25.706 90.1113 26.438V30.722H91.3533V32H88.7973V29.066C88.5333 30.002 88.0413 30.764 87.3213 31.352C86.6013 31.928 85.7373 32.216 84.7293 32.216ZM85.3413 31.064C85.9893 31.064 86.5713 30.914 87.0873 30.614C87.6153 30.302 88.0293 29.894 88.3293 29.39C88.6293 28.874 88.7793 28.322 88.7793 27.734L88.7973 27.014C88.6293 27.158 88.3953 27.266 88.0953 27.338C87.8073 27.41 87.4173 27.464 86.9253 27.5C86.9013 27.5 86.8713 27.506 86.8353 27.518C86.7993 27.518 86.7693 27.518 86.7453 27.518C85.6053 27.614 84.7653 27.818 84.2253 28.13C83.6853 28.43 83.4153 28.88 83.4153 29.48C83.4153 29.996 83.5893 30.392 83.9373 30.668C84.2853 30.932 84.7533 31.064 85.3413 31.064Z" fill="white"/>
<path d="M19.5 33.8H92.0013V34.7H19.5V33.8Z" fill="white"/>
</g>
<defs>
<filter id="filter0_d_37_35" x="0" y="0" width="112" height="59" filterUnits="userSpaceOnUse" color-interpolation-filters="sRGB">
<feFlood flood-opacity="0" result="BackgroundImageFix"/>
<feColorMatrix in="SourceAlpha" type="matrix" values="0 0 0 0 0 0 0 0 0 0 0 0 0 0 0 0 0 0 127 0" result="hardAlpha"/>
<feMorphology radius="1" operator="dilate" in="SourceAlpha" result="effect1_dropShadow_37_35"/>
<feOffset dy="5"/>
<feGaussianBlur stdDeviation="1.5"/>
<feComposite in2="hardAlpha" operator="out"/>
<feColorMatrix type="matrix" values="0 0 0 0 0 0 0 0 0 0 0 0 0 0 0 0 0 0 0.25 0"/>
<feBlend mode="normal" in2="BackgroundImageFix" result="effect1_dropShadow_37_35"/>
<feBlend mode="normal" in="SourceGraphic" in2="effect1_dropShadow_37_35" result="shape"/>
</filter>
</defs>
</svg>
