<svg width="48" height="48" viewBox="0 0 48 48" fill="none" xmlns="http://www.w3.org/2000/svg">
<path fill-rule="evenodd" clip-rule="evenodd" d="M10.1775 24.6077C11.415 24.6077 13.005 24.4389 14.5012 24.5027C15.9753 24.5265 17.4332 24.8135 18.8062 25.3502C20.1947 25.9323 21.5361 26.6206 22.8187 27.4089C23.1637 27.6039 23.5125 27.7839 23.8687 27.9902C24.225 28.1964 24.5925 28.3652 24.9712 28.5564C25.7445 28.9335 26.5487 29.2434 27.375 29.4827C28.2503 29.7218 29.1527 29.8478 30.06 29.8577C31.0274 29.8696 31.9924 29.76 32.9325 29.5314C34.8451 29.0703 36.6432 28.2229 38.2162 27.0414C38.415 26.8914 38.5912 26.7414 38.7825 26.5877C38.8612 26.1452 38.9175 25.6989 38.955 25.2452C38.73 25.3427 38.4825 25.4439 38.205 25.5377C36.632 26.1103 34.9948 26.4881 33.33 26.6627C32.4692 26.7508 31.6032 26.7759 30.7387 26.7377C29.912 26.6997 29.0894 26.5969 28.2787 26.4302C27.5014 26.2701 26.7388 26.0456 25.9987 25.7589C25.6237 25.6164 25.275 25.4627 24.9225 25.3052C24.57 25.1477 24.2212 24.9752 23.8762 24.8064C22.5397 24.0767 21.1243 23.5018 19.6575 23.0927C18.0919 22.7407 16.4748 22.681 14.8875 22.9164C12.6187 23.2502 10.2487 24.0002 9 24.1202C9 24.2589 9 24.4014 9 24.5402C9.39 24.5948 9.78381 24.6174 10.1775 24.6077Z" fill="white"/>
<path fill-rule="evenodd" clip-rule="evenodd" d="M20.5312 20.9101C22.0118 21.4497 23.4199 22.1702 24.7237 23.0551L25.6987 23.6701C26.025 23.8764 26.3475 24.0751 26.6812 24.2626C27.3358 24.6524 28.0234 24.9837 28.7362 25.2526C29.4761 25.5186 30.2502 25.6777 31.035 25.7251C31.8719 25.7756 32.7118 25.7239 33.5362 25.5714C35.155 25.2565 36.7353 24.7687 38.25 24.1164L39 23.8014C39 23.4264 38.9737 23.0514 38.94 22.6764C38.7375 22.6464 38.5125 22.6201 38.28 22.6014C37.0912 22.5151 35.61 22.5639 34.1812 22.4814C33.465 22.4439 32.7487 22.3801 32.0437 22.2864C31.3387 22.1926 30.6375 22.0764 29.94 21.9114C29.2352 21.7597 28.5412 21.5618 27.8625 21.3189C27.5225 21.1939 27.1775 21.0626 26.8275 20.9251L25.7812 20.4751C24.3099 19.7833 22.7686 19.2515 21.1837 18.8889C19.3887 18.5419 17.5435 18.5457 15.75 18.9001C13.3562 19.3554 11.1 20.3578 9.15748 21.8289C9.13873 21.9601 9.11998 22.0914 9.10498 22.2039C11.0775 21.145 13.2482 20.5066 15.48 20.3289C17.1859 20.1664 18.9068 20.3644 20.5312 20.9101Z" fill="white"/>
<path fill-rule="evenodd" clip-rule="evenodd" d="M24 39.0001C26.1814 39.0026 28.3369 38.5283 30.3158 37.6104C32.2947 36.6926 34.0491 35.3533 35.4562 33.6864C34.7216 34.094 33.9538 34.439 33.1612 34.7176C32.268 35.0252 31.3562 35.2757 30.4312 35.4676C29.535 35.6626 28.665 35.8164 27.8062 35.9551C26.9475 36.0939 26.0962 36.2101 25.2375 36.2776C24.8062 36.3039 24.3712 36.3226 23.9362 36.3301C23.5012 36.3376 23.055 36.3076 22.6125 36.2776C20.8289 36.1332 19.0751 35.7355 17.4037 35.0964C15.8637 34.5202 14.3851 33.7916 12.99 32.9214C12.3412 32.5164 11.7262 32.1376 11.1525 31.7289C12.4852 33.9458 14.3687 35.7803 16.6198 37.0544C18.8709 38.3285 21.4133 38.9987 24 39.0001Z" fill="white"/>
<path fill-rule="evenodd" clip-rule="evenodd" d="M17.5238 31.1589C19.0279 31.8933 20.5729 32.5406 22.1513 33.0976C22.5638 33.2401 22.9838 33.3751 23.4075 33.4989C23.8313 33.6226 24.2663 33.7501 24.705 33.8739C25.5834 34.0871 26.4756 34.2387 27.375 34.3276C28.2966 34.4131 29.2248 34.3955 30.1425 34.2751C31.1198 34.1472 32.0788 33.9056 33 33.5551C34.5694 32.9563 36.0196 32.0827 37.2825 30.9751C37.7138 30.1548 38.0679 29.2961 38.34 28.4101L38.25 28.5001C36.6329 29.594 34.7986 30.3257 32.8725 30.6451C31.9113 30.8125 30.9381 30.9016 29.9625 30.9114C29.0337 30.9202 28.1053 30.8663 27.1838 30.7501C26.3243 30.6473 25.4725 30.4882 24.6338 30.2739C24.2288 30.1689 23.8313 30.0526 23.4413 29.9364C23.0513 29.8201 22.6913 29.6851 22.3163 29.5614C20.8163 29.0326 19.425 28.5039 18.0338 28.1326C16.6618 27.7918 15.2605 27.5821 13.8488 27.5064C12.465 27.4014 11.0513 27.4239 9.91128 27.0939C9.69641 27.034 9.48693 26.9562 9.28503 26.8614C9.33378 27.1051 9.38628 27.3451 9.44253 27.5851C9.56628 27.6714 9.69753 27.7539 9.81753 27.8326C10.905 28.4701 12.2138 28.8264 13.4888 29.3589C14.7638 29.8914 16.095 30.4539 17.5238 31.1589Z" fill="white"/>
<path fill-rule="evenodd" clip-rule="evenodd" d="M10.8188 18.5176C12.3581 17.4067 14.1397 16.6778 16.0163 16.3914C17.8561 16.0886 19.7379 16.1561 21.5513 16.5901C23.1987 16.9856 24.7936 17.5747 26.3025 18.3451L27.375 18.8814L28.395 19.4251C29.0625 19.8001 29.7188 20.1189 30.3713 20.4114C31.0139 20.6909 31.6855 20.8984 32.3738 21.0301C33.0581 21.1522 33.7525 21.2087 34.4475 21.1989C35.8388 21.1989 37.2488 21.0114 38.3513 21.1126C38.49 21.1126 38.6213 21.1426 38.7488 21.1651C38.637 20.5831 38.4905 20.0084 38.31 19.4439C37.2744 18.7175 36.1822 18.0754 35.0438 17.5239C34.4288 17.2089 33.795 16.8939 33.1275 16.6126C32.4471 16.3207 31.7496 16.0702 31.0388 15.8626C30.3188 15.6639 29.5725 15.4876 28.7888 15.2964C28.4063 15.2064 28.02 15.1201 27.63 15.0376C27.255 14.9476 26.8425 14.8614 26.445 14.7826C24.802 14.4294 23.13 14.2273 21.45 14.1789C19.6108 14.1451 17.7776 14.3981 16.0163 14.9289C14.1114 15.5155 12.357 16.5098 10.875 17.8426C10.5285 18.163 10.2052 18.5076 9.90755 18.8739C9.82505 19.1026 9.7463 19.3351 9.67505 19.5676C10.0185 19.1786 10.4019 18.8267 10.8188 18.5176Z" fill="white"/>
<path fill-rule="evenodd" clip-rule="evenodd" d="M25.9837 11.5914C26.4299 11.7002 26.8762 11.8277 27.3149 11.9664C27.7537 12.1052 28.1887 12.2889 28.6162 12.4689C29.4562 12.8368 30.2739 13.2538 31.0649 13.7177C31.8374 14.1527 32.5649 14.5764 33.2474 14.9514C33.9299 15.3264 34.5824 15.6639 35.2012 15.9752C35.9512 16.3502 36.6824 16.7252 37.3387 17.1264C36.2509 15.0165 34.6779 13.1948 32.749 11.8112C30.8201 10.4276 28.5903 9.52154 26.243 9.16754C23.8957 8.81355 21.498 9.0217 19.2468 9.77491C16.9956 10.5281 14.9553 11.8048 13.2937 13.5002C14.0443 12.9989 14.8433 12.5742 15.6787 12.2327C17.2831 11.5849 18.9863 11.2158 20.7149 11.1414C22.4837 11.0334 24.2588 11.185 25.9837 11.5914Z" fill="white"/>
</svg>
