<svg width="25" height="18" viewBox="0 0 25 18" fill="none" xmlns="http://www.w3.org/2000/svg">
<path fill-rule="evenodd" clip-rule="evenodd" d="M13.4056 12.6167C13.8982 12.6167 14.2993 13.0199 14.2993 13.5178C14.2993 14.0157 13.8982 14.419 13.4056 14.419H2.67887C1.96837 14.419 1.28693 14.1351 0.784227 13.6282C0.281523 13.1213 0 12.4342 0 11.7177V2.70016C0 1.98484 0.281517 1.2977 0.784227 0.790788C1.28693 0.283878 1.96837 0 2.67887 0H18.7701C19.4806 0 20.162 0.283873 20.6647 0.790788C21.1674 1.2977 21.449 1.98484 21.449 2.70016V6.30834C21.449 6.80626 21.049 7.20952 20.5553 7.20952C20.0615 7.20952 19.6616 6.80626 19.6616 6.30834V2.70016C19.6616 2.46248 19.5677 2.2338 19.4013 2.06484C19.2337 1.897 19.0069 1.80237 18.7701 1.80237H2.67889C2.44205 1.80237 2.21528 1.89699 2.04883 2.06484C1.88126 2.23381 1.78743 2.46248 1.78743 2.70016V11.7177C1.78743 11.9565 1.88126 12.1852 2.04883 12.3531C2.21529 12.522 2.44206 12.6166 2.67889 12.6166L13.4056 12.6167ZM16.8317 5.40722C16.8317 5.07492 17.0976 4.80682 17.4271 4.80682C17.7555 4.80682 18.0236 5.07492 18.0236 5.40722V9.01194C18.0236 9.34424 17.7555 9.61234 17.4271 9.61234C17.0976 9.61234 16.8317 9.34424 16.8317 9.01194V5.40722ZM11.4695 5.40722C11.4695 5.07492 11.7353 4.80682 12.0649 4.80682C12.3933 4.80682 12.6614 5.07492 12.6614 5.40722V9.01194C12.6614 9.34424 12.3933 9.61234 12.0649 9.61234C11.7353 9.61234 11.4695 9.34424 11.4695 9.01194V5.40722ZM6.10726 5.40722C6.10726 5.07492 6.37425 4.80682 6.70268 4.80682C7.03111 4.80682 7.29921 5.07492 7.29921 5.40722V9.01194C7.29921 9.34424 7.0311 9.61234 6.70268 9.61234C6.37425 9.61234 6.10726 9.34424 6.10726 9.01194V5.40722ZM14.1494 3.60486C14.1494 3.27369 14.4175 3.00334 14.746 3.00334C15.0755 3.00334 15.3414 3.27369 15.3414 3.60486V10.8143C15.3414 11.1455 15.0755 11.4158 14.746 11.4158C14.4175 11.4158 14.1494 11.1455 14.1494 10.8143V3.60486ZM8.78722 3.60486C8.78722 3.27369 9.05533 3.00334 9.38375 3.00334C9.71329 3.00334 9.97917 3.27369 9.97917 3.60486V10.8143C9.97917 11.1455 9.7133 11.4158 9.38375 11.4158C9.05533 11.4158 8.78722 11.1455 8.78722 10.8143V3.60486ZM3.42501 3.60486C3.42501 3.27369 3.69312 3.00334 4.02154 3.00334C4.35108 3.00334 4.61696 3.27369 4.61696 3.60486V10.8143C4.61696 11.1455 4.35109 11.4158 4.02154 11.4158C3.69312 11.4158 3.42501 11.1455 3.42501 10.8143V3.60486ZM21.1046 9.40384C21.1046 9.40384 21.5559 10.4886 21.9391 11.2524C22.0675 11.5104 22.1737 11.73 22.2507 11.8078C22.3278 11.8855 22.5457 11.9914 22.8004 12.122C23.5589 12.5084 24.6347 12.9635 24.6347 12.9635C24.8559 13.0581 25 13.2755 25 13.5178C25 13.76 24.8559 13.9774 24.6347 14.072C24.6347 14.072 23.5589 14.5271 22.8004 14.9135C22.5457 15.043 22.3278 15.15 22.2519 15.2266C22.1737 15.3043 22.0687 15.5251 21.939 15.782C21.557 16.5457 21.1045 17.6317 21.1045 17.6317C21.0118 17.8547 20.7951 18 20.5549 18C20.3147 18 20.098 17.8547 20.0053 17.6317C20.0053 17.6317 19.554 16.5469 19.1708 15.7831C19.0423 15.5251 18.9362 15.3055 18.8602 15.2277C18.782 15.15 18.5653 15.0441 18.3095 14.9135C17.551 14.5271 16.4751 14.072 16.4751 14.072C16.2551 13.9774 16.1099 13.76 16.1099 13.5178C16.1099 13.2755 16.2551 13.0581 16.4751 12.9635C16.4751 12.9635 17.5509 12.5084 18.3095 12.122C18.5653 11.9914 18.782 11.8855 18.8602 11.8078C18.9362 11.73 19.0423 11.5104 19.1708 11.2524C19.5539 10.4887 20.0053 9.40384 20.0053 9.40384C20.098 9.1808 20.3147 9.0355 20.5549 9.0355C20.7951 9.0355 21.0119 9.18082 21.1046 9.40384Z" fill="white"/>
</svg>
