<svg width="48" height="48" viewBox="0 0 48 48" fill="none" xmlns="http://www.w3.org/2000/svg">
<path d="M36.2074 10.2936C35.9264 10.0116 35.5044 9.92359 35.1344 10.0696L7.13406 21.0694C6.75505 21.2184 6.50405 21.5824 6.50005 21.9904C6.49605 22.3973 6.73905 22.7663 7.11506 22.9233L14.2451 25.8943L12.5301 32.7581C12.4451 33.0991 12.5451 33.4591 12.7931 33.7071C12.9831 33.8961 13.2381 34.0001 13.5001 34.0001C13.5811 34.0001 13.6621 33.9901 13.7431 33.9701L20.6062 32.2542L23.5772 39.385C23.7322 39.758 24.0972 40 24.5002 40C24.5032 40 24.5072 40 24.5102 40C24.9173 39.996 25.2813 39.745 25.4303 39.365L36.4304 11.3656C36.5764 10.9956 36.4884 10.5746 36.2074 10.2936ZM31.4013 13.6855L19.2662 25.8203L10.1651 22.0284L31.4013 13.6855ZM14.8751 31.6262L16.1132 26.6723L18.7352 27.7652L19.8282 30.3882L14.8751 31.6262ZM24.4732 36.3351L20.6812 27.2342L32.8153 15.0995L24.4732 36.3351Z" fill="white"/>
</svg>
