<svg width="48" height="48" viewBox="0 0 48 48" fill="none" xmlns="http://www.w3.org/2000/svg">
<g filter="url(#filter0_i_71_83)">
<rect width="48" height="48" rx="20" fill="#353535"/>
<path d="M23.9922 9.00001C21.4136 8.99894 18.8783 9.66371 16.6316 10.93C14.385 12.1963 12.5029 14.0212 11.1676 16.2283C9.83228 18.4354 9.08885 20.9499 9.00924 23.5286C8.92962 26.1073 9.51651 28.6629 10.7131 30.9482L9.03183 37.6693C8.99247 37.8272 8.98957 37.992 9.02337 38.1512C9.05717 38.3104 9.12678 38.4598 9.2269 38.5881C9.32703 38.7163 9.45504 38.8201 9.60123 38.8915C9.74741 38.9628 9.90793 39 10.0706 39C10.1583 39.0002 10.2458 38.9894 10.3308 38.9679L17.0475 37.2857C19.062 38.3421 21.2904 38.9261 23.5639 38.9934C25.8373 39.0608 28.0963 38.6097 30.1698 37.6743C32.2432 36.739 34.0768 35.344 35.5317 33.5948C36.9866 31.8456 38.0246 29.7882 38.5672 27.5783C39.1097 25.3684 39.1427 23.0639 38.6634 20.8394C38.1842 18.6149 37.2053 16.5286 35.801 14.7386C34.3967 12.9485 32.6037 11.5016 30.5578 10.5074C28.5119 9.51317 26.2667 8.9977 23.9922 9.00001ZM23.9922 36.8571C21.794 36.8554 19.633 36.2895 17.7157 35.2136C17.5558 35.1237 17.3755 35.0765 17.1921 35.0764C17.1043 35.0762 17.0169 35.087 16.9318 35.1086L11.5431 36.4564L12.8903 31.0639C12.9557 30.7987 12.9174 30.5186 12.7832 30.2807C11.4047 27.8173 10.875 24.9684 11.2758 22.1739C11.6766 19.3793 12.9856 16.7944 15.0007 14.8182C17.0159 12.8419 19.6252 11.5842 22.4258 11.2392C25.2264 10.8942 28.0627 11.4811 30.4969 12.9092C32.931 14.3373 34.8276 16.5273 35.894 19.1411C36.9604 21.7549 37.1373 24.6473 36.3973 27.3717C35.6573 30.096 34.0416 32.501 31.7996 34.2153C29.5577 35.9297 26.814 36.858 23.9922 36.8571Z" fill="white"/>
<path d="M30.4177 19.7143H28.0403L27.4406 17.3143C27.3832 17.082 27.2498 16.8756 27.0615 16.728C26.8733 16.5805 26.641 16.5002 26.4019 16.5H21.5828C21.3437 16.5002 21.1115 16.5805 20.9232 16.728C20.7349 16.8756 20.6015 17.082 20.5441 17.3143L19.9444 19.7143H17.567C17.283 19.7143 17.0106 19.8272 16.8098 20.0281C16.6089 20.229 16.4961 20.5016 16.4961 20.7857C16.4961 21.0699 16.6089 21.3424 16.8098 21.5433C17.0106 21.7443 17.283 21.8571 17.567 21.8571H17.7062L18.9163 30.5786C18.9524 30.8342 19.0796 31.0681 19.2744 31.2374C19.4692 31.4067 19.7185 31.5 19.9765 31.5H28.0082C28.2662 31.5 28.5156 31.4067 28.7104 31.2374C28.9051 31.0681 29.0323 30.8342 29.0684 30.5786L30.2785 21.8571H30.4177C30.7018 21.8571 30.9741 21.7443 31.175 21.5433C31.3758 21.3424 31.4886 21.0699 31.4886 20.7857C31.4886 20.5016 31.3758 20.229 31.175 20.0281C30.9741 19.8272 30.7018 19.7143 30.4177 19.7143ZM22.4181 18.6429H25.5666L25.8343 19.7143H22.1504L22.4181 18.6429Z" fill="white"/>
</g>
<defs>
<filter id="filter0_i_71_83" x="0" y="0" width="48" height="52" filterUnits="userSpaceOnUse" color-interpolation-filters="sRGB">
<feFlood flood-opacity="0" result="BackgroundImageFix"/>
<feBlend mode="normal" in="SourceGraphic" in2="BackgroundImageFix" result="shape"/>
<feColorMatrix in="SourceAlpha" type="matrix" values="0 0 0 0 0 0 0 0 0 0 0 0 0 0 0 0 0 0 127 0" result="hardAlpha"/>
<feOffset dy="4"/>
<feGaussianBlur stdDeviation="2"/>
<feComposite in2="hardAlpha" operator="arithmetic" k2="-1" k3="1"/>
<feColorMatrix type="matrix" values="0 0 0 0 0 0 0 0 0 0 0 0 0 0 0 0 0 0 0.25 0"/>
<feBlend mode="normal" in2="shape" result="effect1_innerShadow_71_83"/>
</filter>
</defs>
</svg>
