<svg width="18" height="18" viewBox="0 0 18 18" fill="none" xmlns="http://www.w3.org/2000/svg">
<path d="M9.3913 18C12.7346 18 15.8521 16.2757 17.5273 13.5004C17.7437 13.1419 17.6157 12.6833 17.2417 12.4759C16.8668 12.2678 16.3882 12.3904 16.1722 12.7496C14.776 15.063 12.1778 16.5 9.3913 16.5C5.076 16.5 1.56522 13.1355 1.56522 9C1.56522 4.8645 5.076 1.5 9.3913 1.5C11.862 1.5 14.1824 2.63138 15.6506 4.5H12.913C12.481 4.5 12.1304 4.836 12.1304 5.25C12.1304 5.664 12.481 6 12.913 6H17.2174C17.6494 6 18 5.664 18 5.25V1.125C18 0.711 17.6494 0.375 17.2174 0.375C16.7854 0.375 16.4348 0.711 16.4348 1.125V3.04763C14.6692 1.13588 12.1046 0 9.3913 0C4.21278 0 0 4.03763 0 9C0 13.9624 4.21278 18 9.3913 18Z" fill="white"/>
</svg>
