<svg width="18" height="18" viewBox="0 0 18 18" fill="none" xmlns="http://www.w3.org/2000/svg">
<path d="M17.5612 6.13471C17.3438 5.8747 17.0711 5.66648 16.763 5.52523C16.455 5.38399 16.1192 5.31329 15.7804 5.31828H12.8875C12.8612 5.31828 12.8361 5.30786 12.8176 5.28933C12.799 5.27079 12.7886 5.24564 12.7886 5.21943V2.18558C12.7901 1.87306 12.7242 1.56389 12.5955 1.27913C12.4667 0.994361 12.2781 0.740681 12.0425 0.535357C11.8069 0.330032 11.5298 0.177885 11.2301 0.0892735C10.9304 0.000661816 10.6151 -0.0223338 10.3058 0.0218521C9.23793 0.193925 8.85565 1.01188 8.54964 1.66936C8.5115 1.75051 8.47337 1.83258 8.43371 1.91343C8.05314 2.69074 7.6146 3.4383 7.1218 4.14977C6.77546 4.70858 6.22403 5.10953 5.58566 5.26672C5.45894 5.01704 5.26581 4.80716 5.02751 4.66016C4.78922 4.51316 4.51499 4.43473 4.23501 4.43351H1.52547C1.12104 4.43399 0.73331 4.59487 0.447334 4.88084C0.161359 5.16682 0.000484445 5.55454 0 5.95897V15.8257C0.000484445 16.2301 0.161359 16.6179 0.447334 16.9038C0.73331 17.1898 1.12104 17.3507 1.52547 17.3512H4.2347C4.52512 17.3504 4.80928 17.2667 5.05379 17.11C5.29829 16.9532 5.49297 16.73 5.61494 16.4664H14.3406C16.3338 16.4664 16.6514 14.4488 16.8424 13.2431C16.8644 13.104 16.8854 12.97 16.9077 12.8443C17.1036 11.746 17.3443 10.6272 17.5768 9.54657C17.7079 8.93638 17.8391 8.32833 17.9636 7.71845C18.0187 7.44116 18.0112 7.15507 17.9415 6.88106C17.8719 6.60706 17.742 6.35207 17.5612 6.13471ZM4.23501 16.1308H1.52547C1.44455 16.1308 1.36695 16.0987 1.30973 16.0414C1.25252 15.9842 1.22037 15.9066 1.22037 15.8257V5.95897C1.22037 5.87806 1.25252 5.80046 1.30973 5.74324C1.36695 5.68602 1.44455 5.65388 1.52547 5.65388H4.2347C4.27867 5.65411 4.32204 5.6641 4.36166 5.68315C4.40129 5.7022 4.43619 5.72982 4.46383 5.76402C4.56756 5.89124 4.53979 6.1582 4.53979 6.32387V15.7104C4.5401 15.9075 4.47206 16.1308 4.23501 16.1308ZM16.767 7.47346C16.645 8.07877 16.5135 8.68377 16.3832 9.28846C16.1483 10.3798 15.9055 11.5083 15.7056 12.6292C15.6818 12.7623 15.6595 12.9038 15.6364 13.0521C15.3978 14.5684 15.154 15.2448 14.3412 15.2448H5.76047V6.47519C6.24386 6.37542 6.70234 6.17972 7.10878 5.89968C7.51522 5.61963 7.86138 5.26093 8.12678 4.84477C8.65391 4.08272 9.12304 3.28214 9.53021 2.44979C9.57323 2.36192 9.61472 2.27314 9.65561 2.18466C9.95002 1.55312 10.109 1.28982 10.4998 1.22667C10.7188 1.20155 10.9398 1.25169 11.1265 1.36884C11.2649 1.45469 11.3784 1.57522 11.4559 1.71848C11.5334 1.86173 11.5721 2.02275 11.5682 2.18558V5.22004C11.5688 5.56969 11.708 5.90485 11.9553 6.15203C12.2026 6.39921 12.5378 6.53825 12.8875 6.53865H15.7804C15.9379 6.53489 16.0943 6.56572 16.2387 6.62897C16.383 6.69223 16.5117 6.78637 16.6157 6.90477C16.6826 6.98174 16.7311 7.073 16.7573 7.17157C16.7835 7.27014 16.7868 7.3734 16.767 7.47346Z" fill="white"/>
</svg>
