<svg width="48" height="48" viewBox="0 0 48 48" fill="none" xmlns="http://www.w3.org/2000/svg">
<path d="M9 16.3193C9 15.9272 9.26221 15.5778 9.6372 15.5778H12.75V15.1858C12.75 13.4403 13.9878 12 15.4878 12C16.9878 12 18.2256 13.4403 18.2256 15.1858V15.5778H38.3263C38.6633 15.5778 38.9636 15.9272 38.9636 16.3193C38.9636 16.7113 38.7013 17.0607 38.3263 17.0607L18.2256 17.0624V17.4545C18.2256 19.1999 16.9878 20.6402 15.4878 20.6402C13.9878 20.6402 12.75 19.1999 12.75 17.4545V17.0624H9.6372C9.30028 17.0624 9 16.7556 9 16.3193ZM9.6372 24.7414H25.238V25.1335C25.238 26.8789 26.4758 28.3192 27.9758 28.3192C29.4758 28.3192 30.7136 26.8789 30.7136 25.1335V24.7414H38.3628C38.7378 24.7414 39 24.392 39 24C39 23.6079 38.6997 23.2585 38.3628 23.2585H30.7121V22.8665C30.7121 21.121 29.4742 19.6807 27.9742 19.6807C26.4742 19.6807 25.2364 21.121 25.2364 22.8665V23.2585H9.6372C9.2622 23.2585 9 23.6079 9 24C9 24.4363 9.30029 24.7414 9.6372 24.7414ZM38.363 30.895H18.2258V30.5455C18.2258 28.8001 16.988 27.3598 15.488 27.3598C13.988 27.3598 12.7502 28.8001 12.7502 30.5455V30.9376H9.63742C9.26242 30.9376 9.00022 31.287 9.00022 31.679C9.00022 32.1154 9.30052 32.4205 9.63742 32.4205L12.7502 32.4222V32.8142C12.7502 34.5597 13.988 36 15.488 36C16.988 36 18.2258 34.5597 18.2258 32.8142V32.4222H38.3266C38.7016 32.4222 38.9638 32.0728 38.9638 31.6807C39.0004 31.2444 38.6999 30.895 38.363 30.895Z" fill="white"/>
</svg>
