<svg width="112" height="59" viewBox="0 0 112 59" fill="none" xmlns="http://www.w3.org/2000/svg">
<g filter="url(#filter0_d_39_213)">
<rect x="4.5" y="0.5" width="103" height="49" rx="24.5" stroke="white" shape-rendering="crispEdges"/>
<path d="M23.926 32.27C22.906 32.27 21.976 32.084 21.136 31.712C20.296 31.34 19.612 30.794 19.084 30.074C18.568 29.354 18.262 28.502 18.166 27.518H19.732C19.876 28.538 20.32 29.342 21.064 29.93C21.808 30.506 22.756 30.794 23.908 30.794C24.976 30.794 25.822 30.566 26.446 30.11C27.082 29.654 27.4 29.042 27.4 28.274C27.4 27.818 27.274 27.41 27.022 27.05C26.77 26.69 26.422 26.408 25.978 26.204C25.534 25.988 25.03 25.88 24.466 25.88H23.098V25.52H24.466C24.97 25.52 25.426 25.412 25.834 25.196C26.242 24.98 26.566 24.692 26.806 24.332C27.046 23.96 27.166 23.552 27.166 23.108C27.166 22.616 27.022 22.184 26.734 21.812C26.458 21.428 26.062 21.134 25.546 20.93C25.042 20.714 24.46 20.606 23.8 20.606C22.744 20.606 21.874 20.882 21.19 21.434C20.518 21.986 20.116 22.736 19.984 23.684H18.4C18.52 22.712 18.832 21.884 19.336 21.2C19.84 20.516 20.488 20 21.28 19.652C22.072 19.304 22.96 19.13 23.944 19.13C24.844 19.13 25.66 19.274 26.392 19.562C27.124 19.85 27.7 20.264 28.12 20.804C28.54 21.332 28.75 21.944 28.75 22.64C28.75 23.384 28.516 24.026 28.048 24.566C27.592 25.106 26.968 25.478 26.176 25.682C26.98 25.85 27.64 26.21 28.156 26.762C28.684 27.302 28.948 27.938 28.948 28.67C28.948 29.402 28.738 30.044 28.318 30.596C27.898 31.136 27.31 31.55 26.554 31.838C25.81 32.126 24.934 32.27 23.926 32.27ZM33.2821 32.216C32.4181 32.216 31.7401 32.012 31.2481 31.604C30.7561 31.196 30.5101 30.638 30.5101 29.93C30.5101 29.234 30.7381 28.694 31.1941 28.31C31.6621 27.926 32.2201 27.662 32.8681 27.518C33.5161 27.362 34.2541 27.254 35.0821 27.194C35.8021 27.146 36.3541 27.062 36.7381 26.942C37.1341 26.822 37.3321 26.606 37.3321 26.294C37.3321 25.598 37.0981 25.046 36.6301 24.638C36.1621 24.218 35.5741 24.008 34.8661 24.008C34.1221 24.008 33.5101 24.218 33.0301 24.638C32.5501 25.046 32.2561 25.616 32.1481 26.348H30.7981C30.8701 25.616 31.0861 24.986 31.4461 24.458C31.8181 23.918 32.2981 23.51 32.8861 23.234C33.4861 22.958 34.1521 22.82 34.8841 22.82C35.6281 22.82 36.2821 22.964 36.8461 23.252C37.4221 23.54 37.8661 23.96 38.1781 24.512C38.5021 25.064 38.6641 25.706 38.6641 26.438V30.722H39.9061V32H37.3501V29.066C37.0861 30.002 36.5941 30.764 35.8741 31.352C35.1541 31.928 34.2901 32.216 33.2821 32.216ZM33.8941 31.064C34.5421 31.064 35.1241 30.914 35.6401 30.614C36.1681 30.302 36.5821 29.894 36.8821 29.39C37.1821 28.874 37.3321 28.322 37.3321 27.734L37.3501 27.014C37.1821 27.158 36.9481 27.266 36.6481 27.338C36.3601 27.41 35.9701 27.464 35.4781 27.5C35.4541 27.5 35.4241 27.506 35.3881 27.518C35.3521 27.518 35.3221 27.518 35.2981 27.518C34.1581 27.614 33.3181 27.818 32.7781 28.13C32.2381 28.43 31.9681 28.88 31.9681 29.48C31.9681 29.996 32.1421 30.392 32.4901 30.668C32.8381 30.932 33.3061 31.064 33.8941 31.064ZM42.2905 32V19.22H43.7305V27.32H45.0805L48.5905 23H50.1565L46.5205 27.392L50.2645 32H48.5545L45.0445 27.68H43.7305V32H42.2905ZM52.3803 35.6V23H53.8203V25.916C54.0843 24.98 54.5463 24.23 55.2063 23.666C55.8783 23.102 56.6703 22.82 57.5823 22.82C58.3503 22.82 59.0463 23.024 59.6703 23.432C60.2943 23.84 60.7863 24.404 61.1463 25.124C61.5183 25.832 61.7043 26.624 61.7043 27.5C61.7043 28.376 61.5183 29.174 61.1463 29.894C60.7863 30.602 60.2943 31.16 59.6703 31.568C59.0463 31.976 58.3503 32.18 57.5823 32.18C56.6703 32.18 55.8783 31.898 55.2063 31.334C54.5463 30.77 54.0843 30.014 53.8203 29.066V35.6H52.3803ZM57.0063 30.83C57.6063 30.83 58.1523 30.686 58.6443 30.398C59.1363 30.098 59.5263 29.696 59.8143 29.192C60.1023 28.688 60.2463 28.124 60.2463 27.5C60.2463 26.876 60.1023 26.312 59.8143 25.808C59.5263 25.292 59.1363 24.89 58.6443 24.602C58.1523 24.302 57.6063 24.152 57.0063 24.152C56.4063 24.152 55.8603 24.302 55.3683 24.602C54.8763 24.89 54.4863 25.292 54.1983 25.808C53.9223 26.312 53.7843 26.876 53.7843 27.5C53.7843 28.124 53.9223 28.688 54.1983 29.192C54.4863 29.696 54.8763 30.098 55.3683 30.398C55.8603 30.686 56.4063 30.83 57.0063 30.83ZM64.2456 32V23H65.6856V31.334L71.1756 23H72.6696V32H71.2296V23.648L65.7396 32H64.2456ZM78.6304 32V24.368H74.9224V23H83.7784V24.368H80.0524V32H78.6304ZM86.0073 32V23H87.4293V26.78H89.6253C90.6693 26.78 91.4973 27.014 92.1093 27.482C92.7333 27.938 93.0453 28.556 93.0453 29.336C93.0453 30.152 92.7273 30.8 92.0913 31.28C91.4553 31.76 90.6033 32 89.5353 32H86.0073ZM89.1393 30.902C89.9073 30.902 90.5073 30.734 90.9393 30.398C91.3713 30.062 91.5873 29.6 91.5873 29.012C91.5873 28.424 91.3653 27.968 90.9213 27.644C90.4893 27.308 89.8953 27.14 89.1393 27.14H87.4293L87.4473 30.902H89.1393Z" fill="white"/>
</g>
<defs>
<filter id="filter0_d_39_213" x="0" y="0" width="112" height="59" filterUnits="userSpaceOnUse" color-interpolation-filters="sRGB">
<feFlood flood-opacity="0" result="BackgroundImageFix"/>
<feColorMatrix in="SourceAlpha" type="matrix" values="0 0 0 0 0 0 0 0 0 0 0 0 0 0 0 0 0 0 127 0" result="hardAlpha"/>
<feMorphology radius="1" operator="dilate" in="SourceAlpha" result="effect1_dropShadow_39_213"/>
<feOffset dy="5"/>
<feGaussianBlur stdDeviation="1.5"/>
<feComposite in2="hardAlpha" operator="out"/>
<feColorMatrix type="matrix" values="0 0 0 0 0 0 0 0 0 0 0 0 0 0 0 0 0 0 0.25 0"/>
<feBlend mode="normal" in2="BackgroundImageFix" result="effect1_dropShadow_39_213"/>
<feBlend mode="normal" in="SourceGraphic" in2="effect1_dropShadow_39_213" result="shape"/>
</filter>
</defs>
</svg>
