<svg width="48" height="48" viewBox="0 0 48 48" fill="none" xmlns="http://www.w3.org/2000/svg">
<g filter="url(#filter0_i_69_69)">
<rect width="48" height="48" rx="20" fill="#353535"/>
<path d="M24 9C20.5217 9 17.6844 11.8373 17.6844 15.3158V24.7895C17.6844 28.2679 20.5217 31.1053 24 31.1053C27.4784 31.1053 30.3157 28.2679 30.3157 24.7895V15.3158C30.3157 11.8373 27.4784 9 24 9ZM24 11.3684C26.2073 11.3684 27.9473 13.1085 27.9473 15.3158V24.7895C27.9473 26.9968 26.2073 28.7368 24 28.7368C21.7928 28.7368 20.0528 26.9968 20.0528 24.7895V15.3158C20.0528 13.1085 21.7928 11.3684 24 11.3684ZM15.3283 20.4474C14.6959 20.4407 14.1187 21.0239 14.1318 21.6563V24.8141C14.1318 29.8606 17.9259 34.0236 22.8159 34.6086V36.6316H20.0528C19.3987 36.6316 18.8686 37.1618 18.8686 37.8158C18.8686 38.4698 19.3987 39 20.0528 39H27.9473C28.6013 39 29.1315 38.4698 29.1315 37.8158C29.1315 37.1618 28.6013 36.6388 27.9473 36.6316H25.1842V34.6086C30.0742 34.0236 33.8683 29.8606 33.8683 24.8141V21.6563C33.8772 21.0306 33.3098 20.4551 32.6841 20.4551C32.0584 20.4551 31.491 21.0306 31.4999 21.6563V24.8141C31.4999 28.9896 28.1755 32.3141 24 32.3141C19.8246 32.3141 16.5002 28.9896 16.5002 24.8141V21.6563C16.5132 21.0321 15.9525 20.4538 15.3283 20.4474Z" fill="white"/>
</g>
<defs>
<filter id="filter0_i_69_69" x="0" y="0" width="48" height="52" filterUnits="userSpaceOnUse" color-interpolation-filters="sRGB">
<feFlood flood-opacity="0" result="BackgroundImageFix"/>
<feBlend mode="normal" in="SourceGraphic" in2="BackgroundImageFix" result="shape"/>
<feColorMatrix in="SourceAlpha" type="matrix" values="0 0 0 0 0 0 0 0 0 0 0 0 0 0 0 0 0 0 127 0" result="hardAlpha"/>
<feOffset dy="4"/>
<feGaussianBlur stdDeviation="2"/>
<feComposite in2="hardAlpha" operator="arithmetic" k2="-1" k3="1"/>
<feColorMatrix type="matrix" values="0 0 0 0 0 0 0 0 0 0 0 0 0 0 0 0 0 0 0.25 0"/>
<feBlend mode="normal" in2="shape" result="effect1_innerShadow_69_69"/>
</filter>
</defs>
</svg>
