<svg width="18" height="18" viewBox="0 0 18 18" fill="none" xmlns="http://www.w3.org/2000/svg">
<path d="M0.438806 11.2165C0.656193 11.4765 0.928871 11.6847 1.23695 11.826C1.54504 11.9672 1.88076 12.0379 2.21964 12.0329H5.11254C5.13875 12.0329 5.1639 12.0433 5.18243 12.0619C5.20097 12.0804 5.21139 12.1056 5.21139 12.1318V15.1656C5.20991 15.4781 5.27579 15.7873 5.40455 16.0721C5.5333 16.3568 5.7219 16.6105 5.95751 16.8158C6.19312 17.0212 6.4702 17.1733 6.76989 17.2619C7.06959 17.3505 7.38486 17.3735 7.69424 17.3293C8.76207 17.1573 9.14435 16.3393 9.45036 15.6818C9.4885 15.6007 9.52663 15.5186 9.56629 15.4378C9.94686 14.6605 10.3854 13.9129 10.8782 13.2014C11.2245 12.6426 11.776 12.2417 12.4143 12.0845C12.5411 12.3342 12.7342 12.544 12.9725 12.691C13.2108 12.838 13.485 12.9165 13.765 12.9177H16.4745C16.879 12.9172 17.2667 12.7563 17.5527 12.4704C17.8386 12.1844 17.9995 11.7967 18 11.3922L18 1.52549C17.9995 1.12106 17.8386 0.733333 17.5527 0.447357C17.2667 0.161381 16.879 0.000507919 16.4745 2.34734e-05H13.7653C13.4749 0.000815117 13.1907 0.0844941 12.9462 0.241226C12.7017 0.397958 12.507 0.621228 12.3851 0.884794H3.65937C1.6662 0.884794 1.3486 2.90238 1.15761 4.10811C1.13564 4.24723 1.11459 4.38117 1.09232 4.50687C0.896447 5.6052 0.655728 6.72398 0.423247 7.80462C0.292056 8.41481 0.160865 9.02286 0.0363872 9.63275C-0.0187012 9.91004 -0.0111583 10.1961 0.0584641 10.4701C0.128086 10.7441 0.25803 10.9991 0.438806 11.2165ZM13.765 1.2204H16.4745C16.5554 1.2204 16.633 1.25254 16.6903 1.30976C16.7475 1.36697 16.7796 1.44458 16.7796 1.52549L16.7796 11.3922C16.7796 11.4731 16.7475 11.5507 16.6903 11.608C16.633 11.6652 16.5554 11.6973 16.4745 11.6973H13.7653C13.7213 11.6971 13.678 11.6871 13.6383 11.668C13.5987 11.649 13.5638 11.6214 13.5362 11.5872C13.4324 11.46 13.4602 11.193 13.4602 11.0273L13.4602 1.64082C13.4599 1.44373 13.5279 1.2204 13.765 1.2204ZM1.23296 9.87774C1.355 9.27243 1.4865 8.66743 1.61677 8.06273C1.85169 6.97141 2.09455 5.84287 2.29439 4.72196C2.31818 4.58894 2.34046 4.44737 2.36364 4.2991C2.60223 2.78278 2.846 2.10639 3.65877 2.10639L12.2395 2.10639L12.2395 10.876C11.7561 10.9758 11.2977 11.1715 10.8912 11.4515C10.4848 11.7316 10.1386 12.0903 9.87322 12.5064C9.34609 13.2685 8.87696 14.0691 8.46979 14.9014C8.42677 14.9893 8.38528 15.0781 8.34439 15.1665C8.04998 15.7981 7.89102 16.0614 7.5002 16.1245C7.28123 16.1496 7.06023 16.0995 6.87354 15.9824C6.73513 15.8965 6.62156 15.776 6.54407 15.6327C6.46658 15.4895 6.42787 15.3284 6.43176 15.1656V12.1312C6.4312 11.7815 6.29201 11.4463 6.04471 11.1992C5.79741 10.952 5.46219 10.8129 5.11254 10.8125H2.21964C2.0621 10.8163 1.90565 10.7855 1.76132 10.7222C1.61699 10.659 1.48829 10.5648 1.38429 10.4464C1.31737 10.3695 1.26894 10.2782 1.24271 10.1796C1.21648 10.0811 1.21315 9.97779 1.23296 9.87774Z" fill="white"/>
</svg>
